<?xml version="1.0" encoding="utf-8"?><svg xmlns="http://www.w3.org/2000/svg" xmlns:xlink="http://www.w3.org/1999/xlink" width="1366" height="636" preserveAspectRatio="xMidYMid" viewBox="0 0 1366 636" style="z-index:1;margin-right:-2px;display:block;background-repeat-y:initial;background-repeat-x:initial;background-color:rgb(241, 242, 243);animation-play-state:paused" ><g transform="translate(683,318) scale(1,1) translate(-683,-318)" style="transform:matrix(1, 0, 0, 1, 0, 0);animation-play-state:paused" ><circle cx="0" cy="0" r="1506.8019113340679" fill="#5699d2" fill-opacity="0.4" transform="matrix(0.9950000047683716,0,0,0.9950000047683716,0,0)" style="transform:matrix(0.995, 0, 0, 0.995, 0, 0);animation-play-state:paused" ></circle>
<circle cx="0" cy="0" r="1369.819919394607" fill="#5190c9" fill-opacity="0.4" transform="matrix(0.9957138299942017,0,0,0.9957138299942017,0,0)" style="transform:matrix(0.995714, 0, 0, 0.995714, 0, 0);animation-play-state:paused" ></circle>
<circle cx="0" cy="0" r="1232.8379274551464" fill="#4b88c0" fill-opacity="0.4" transform="matrix(0.99781733751297,0,0,0.99781733751297,0,0)" style="transform:matrix(0.997817, 0, 0, 0.997817, 0, 0);animation-play-state:paused" ></circle>
<circle cx="0" cy="0" r="1095.8559355156858" fill="#467fb7" fill-opacity="0.4" transform="matrix(1.0007541179656982,0,0,1.0007541179656982,0,0)" style="transform:matrix(1.00075, 0, 0, 1.00075, 0, 0);animation-play-state:paused" ></circle>
<circle cx="0" cy="0" r="958.873943576225" fill="#4177af" fill-opacity="0.4" transform="matrix(1.0033912658691406,0,0,1.0033912658691406,0,0)" style="transform:matrix(1.00339, 0, 0, 1.00339, 0, 0);animation-play-state:paused" ></circle>
<circle cx="0" cy="0" r="821.8919516367642" fill="#3c6ea6" fill-opacity="0.4" transform="matrix(1.004823923110962,0,0,1.004823923110962,0,0)" style="transform:matrix(1.00482, 0, 0, 1.00482, 0, 0);animation-play-state:paused" ></circle>
<circle cx="0" cy="0" r="684.9099596973035" fill="#37669d" fill-opacity="0.4" transform="matrix(1.004823923110962,0,0,1.004823923110962,0,0)" style="transform:matrix(1.00482, 0, 0, 1.00482, 0, 0);animation-play-state:paused" ></circle>
<circle cx="0" cy="0" r="547.9279677578429" fill="#325e94" fill-opacity="0.4" transform="matrix(1.0033912658691406,0,0,1.0033912658691406,0,0)" style="transform:matrix(1.00339, 0, 0, 1.00339, 0, 0);animation-play-state:paused" ></circle>
<circle cx="0" cy="0" r="410.9459758183821" fill="#2c568c" fill-opacity="0.4" transform="matrix(1.0007541179656982,0,0,1.0007541179656982,0,0)" style="transform:matrix(1.00075, 0, 0, 1.00075, 0, 0);animation-play-state:paused" ></circle>
<circle cx="0" cy="0" r="273.96398387892145" fill="#274e83" fill-opacity="0.4" transform="matrix(0.9978172779083252,0,0,0.9978172779083252,0,0)" style="transform:matrix(0.997817, 0, 0, 0.997817, 0, 0);animation-play-state:paused" ></circle>
<circle cx="0" cy="0" r="136.98199193946073" fill="#22477b" fill-opacity="0.4" transform="matrix(0.9957138299942017,0,0,0.9957138299942017,0,0)" style="transform:matrix(0.995714, 0, 0, 0.995714, 0, 0);animation-play-state:paused" ></circle>
<circle cx="0" cy="0" r="0" fill="#1d3f72" fill-opacity="0.4" transform="matrix(0.9950000047683716,0,0,0.9950000047683716,0,0)" style="transform:matrix(0.995, 0, 0, 0.995, 0, 0);animation-play-state:paused" ></circle></g></svg>