<svg width="[width]" height="[height]" viewBox="0 0 105 101" fill="none" xmlns="http://www.w3.org/2000/svg"><path d="M52.4991 101L96.1061 54.8843C101.84 48.8204 104.998 40.7478 104.998 32.1509C104.998 23.554 101.84 15.4812 96.1061 9.41755C90.3647 3.34408 82.7313 0.000228218 74.6094 0.000228218C67.3775 0.000228218 60.3132 2.84127 54.6511 8.06919L52.4991 10.1989L50.277 8.00297C44.6849 2.84082 37.6225 0 30.3887 0C22.2669 0 14.6332 3.34363 8.89206 9.41732C3.15806 15.4812 0 23.5538 0 32.1507C0 40.7476 3.15806 48.8222 8.89185 54.8841L52.4991 101Z" fill="#FF877F"></path><path d="M95.7365 54.8841L74.9991 77.5C35 54.8841 41.4894 19.4241 50.3102 10.1987L52.5521 8.06896C58.4504 2.84105 65.8094 0 73.343 0C81.8037 0 89.7556 3.34386 95.7365 9.41733C101.71 15.481 104.999 23.5538 104.999 32.1507C104.999 40.7476 102.499 47.6945 95.7365 54.8841Z" fill="#FDC858"></path></svg>
