<?xml version="1.0" encoding="iso-8859-1"?>
<!-- Generator: Adobe Illustrator 19.0.0, SVG Export Plug-In . SVG Version: 6.00 Build 0)  -->
<svg version="1.1" id="Layer_1" xmlns="http://www.w3.org/2000/svg" xmlns:xlink="http://www.w3.org/1999/xlink" x="0px" y="0px"
	 viewBox="0 0 511.985 511.985" style="enable-background:new 0 0 511.985 511.985;" xml:space="preserve">
<path style="fill:#FFCE54;" d="M490.111,0H276.773c-5.891,0-10.672,4.765-10.672,10.655v192.011c0,5.89,4.781,10.655,10.672,10.655
	h31.999v42.671l85.341-42.671h95.998c5.891,0,10.656-4.766,10.656-10.655V10.655C500.767,4.764,496.002,0,490.111,0z"/>
<path style="fill:#E2A437;" d="M268.601,434.424H51.389c0,0-56.623-263.741,108.606-263.741
	C325.209,170.682,268.601,434.424,268.601,434.424z"/>
<path style="fill:#A0D468;" d="M281.898,428.221l-1.203-0.344c-17.641-4.733-23.609-9.296-31.468-12.28
	c-27.859-10.608-35.108-18.265-36.968-21.874c-0.062-0.141-0.109-0.281-0.172-0.406l-0.234-32.359l-51.858-0.749l-51.858,0.749
	l-0.234,32.359c-0.062,0.125-0.109,0.266-0.172,0.406c-1.859,3.609-9.109,11.266-36.968,21.874
	c-7.859,2.984-13.828,7.547-31.468,12.28l-1.219,0.344c-16.062,5.312-26.858,20.203-26.858,37.016v46.748h148.777h148.777v-46.748
	C308.772,448.424,297.961,433.533,281.898,428.221z"/>
<path style="fill:#EAC6BB;" d="M251.681,298.021c0,59.577-56.795,114.403-91.685,114.403c-34.905,0-91.701-54.826-91.701-114.403
	c0-59.576,41.062-98.887,91.701-98.887S251.681,238.445,251.681,298.021z"/>
<polygon style="fill:#FFCE54;" points="176.761,237.884 94.216,292.71 63.967,299.959 71.107,261.148 91.388,207.524 
	148.277,187.088 214.947,191.525 242.946,239.523 250.962,274.944 "/>
<path style="fill:#F6BB42;" d="M277.211,314.381c-3.047-48.123-16.047-98.372-52.702-124.809l-41.733,34.812l-12.031,17.624
	l106.31,72.592L277.211,314.381z"/>
<polygon style="fill:#ED5564;" points="412.16,120.683 415.441,117.48 440.893,92.684 405.722,87.575 401.191,86.903 399.16,82.794 
	383.442,50.935 367.709,82.794 365.693,86.903 361.146,87.575 325.99,92.684 351.428,117.48 354.709,120.683 353.943,125.199 
	347.928,160.214 379.38,143.682 383.442,141.542 387.489,143.682 418.941,160.214 412.941,125.199 "/>
<path style="fill:#FFCE54;" d="M42.561,318.178c41.468-7.562,87.294-30.062,136.23-66.92c29.171-21.983,50.499-42.437,58.592-50.498
	c-17.718-18.422-42.639-30.077-77.388-30.077C70.842,170.682,46.28,247.461,42.561,318.178z"/>
<g>
</g>
<g>
</g>
<g>
</g>
<g>
</g>
<g>
</g>
<g>
</g>
<g>
</g>
<g>
</g>
<g>
</g>
<g>
</g>
<g>
</g>
<g>
</g>
<g>
</g>
<g>
</g>
<g>
</g>
</svg>
