<?xml version="1.0" encoding="iso-8859-1"?>
<!-- Generator: Adobe Illustrator 22.1.0, SVG Export Plug-In . SVG Version: 6.00 Build 0)  -->
<svg version="1.1" id="Layer_1" xmlns="http://www.w3.org/2000/svg" xmlns:xlink="http://www.w3.org/1999/xlink" x="0px" y="0px"
	 viewBox="0 0 552.443 297" style="enable-background:new 0 0 552.443 297;" xml:space="preserve">
<g>
	<path style="fill:#FFFFFF;" d="M231.319,281.049h-11.535l-1.904,4.869H214l9.348-23.529h4.41l9.348,23.529h-3.88L231.319,281.049
		L231.319,281.049z M220.807,277.909h9.49l-4.762-12.451L220.807,277.909L220.807,277.909z"/>
	<polygon style="fill:#FFFFFF;" points="269.287,267.222 261.668,285.917 260.186,285.917 252.567,267.222 252.567,285.917 
		249.039,285.917 249.039,262.388 254.084,262.388 260.927,279.285 267.771,262.388 272.815,262.388 272.815,285.917 
		269.287,285.917 269.287,267.222 	"/>
	<path style="fill:#FFFFFF;" d="M285.454,268.456c5.115,0,8.29,3.987,8.29,9.207v0.776h-13.476c0.248,2.892,2.364,5.292,5.785,5.292
		c1.8,0,3.775-0.705,5.045-2.012l1.481,2.081c-1.693,1.658-4.092,2.54-6.843,2.54c-5.08,0-8.819-3.597-8.819-8.959
		C276.917,272.443,280.48,268.456,285.454,268.456L285.454,268.456z M280.233,276.145h10.406c-0.071-2.258-1.588-5.078-5.186-5.078
		C282.032,271.067,280.409,273.818,280.233,276.145L280.233,276.145z"/>
	<path style="fill:#FFFFFF;" d="M297.738,268.879h3.174v2.611c1.306-1.693,3.316-2.999,5.574-2.999v3.211
		c-0.317-0.071-0.671-0.106-1.093-0.106c-1.587,0-3.739,1.199-4.48,2.469v11.853h-3.174V268.879L297.738,268.879z"/>
	<polygon style="fill:#FFFFFF;" points="315.413,278.58 312.838,281.191 312.838,285.917 309.664,285.917 309.664,262.388 
		312.838,262.388 312.838,277.521 321.058,268.879 325.045,268.879 317.707,276.604 325.114,285.917 321.093,285.917 
		315.413,278.58 	"/>
	<polygon style="fill:#FFFFFF;" points="328.015,262.388 331.189,262.388 331.189,285.917 328.015,285.917 328.015,262.388 	"/>
	<path style="fill:#FFFFFF;" d="M343.714,268.456c5.115,0,8.291,3.987,8.291,9.207v0.776h-13.476
		c0.248,2.892,2.363,5.292,5.785,5.292c1.798,0,3.776-0.705,5.046-2.012l1.481,2.081c-1.695,1.658-4.093,2.54-6.844,2.54
		c-5.08,0-8.819-3.597-8.819-8.959C335.177,272.443,338.74,268.456,343.714,268.456L343.714,268.456z M338.493,276.145H348.9
		c-0.071-2.258-1.587-5.078-5.186-5.078C340.292,271.067,338.67,273.818,338.493,276.145L338.493,276.145z"/>
	<path style="fill:#FFFFFF;" d="M364.185,274.17c0-7.23,5.361-12.17,12.063-12.17c4.623,0,7.514,2.223,9.349,4.974l-2.999,1.587
		c-1.234-1.975-3.562-3.422-6.35-3.422c-4.761,0-8.429,3.739-8.429,9.031c0,5.257,3.668,9.031,8.429,9.031
		c2.788,0,5.116-1.445,6.35-3.422l2.999,1.589c-1.87,2.751-4.727,4.973-9.349,4.973C369.546,286.34,364.185,281.402,364.185,274.17
		L364.185,274.17z"/>
	<path style="fill:#FFFFFF;" d="M388.004,277.381c0-4.903,3.316-8.925,8.608-8.925c5.326,0,8.606,4.021,8.606,8.925
		c0,4.938-3.28,8.959-8.606,8.959C391.32,286.34,388.004,282.319,388.004,277.381L388.004,277.381z M401.903,277.381
		c0-3.211-1.87-6.102-5.292-6.102c-3.387,0-5.292,2.892-5.292,6.102c0,3.245,1.904,6.139,5.292,6.139
		C400.033,283.519,401.903,280.626,401.903,277.381L401.903,277.381z"/>
	<path style="fill:#FFFFFF;" d="M429.954,274.558c0-1.975-0.882-3.28-2.963-3.28c-1.729,0-3.422,1.199-4.233,2.434v12.205h-3.176
		v-11.359c0-1.975-0.846-3.28-2.997-3.28c-1.658,0-3.316,1.234-4.163,2.469v12.17h-3.174v-17.039h3.174v2.4
		c0.705-1.059,2.963-2.822,5.503-2.822c2.576,0,4.092,1.341,4.621,3.174c0.987-1.587,3.245-3.174,5.75-3.174
		c3.14,0,4.832,1.729,4.832,5.151v12.31h-3.174V274.558L429.954,274.558z"/>
	<path style="fill:#FFFFFF;" d="M438.184,292.408v-23.529h3.174v2.434c1.235-1.693,3.282-2.857,5.574-2.857
		c4.444,0,7.584,3.351,7.584,8.925c0,5.574-3.14,8.959-7.584,8.959c-2.223,0-4.198-1.022-5.574-2.892v8.96H438.184L438.184,292.408z
		 M446.085,271.278c-1.939,0-3.879,1.128-4.727,2.504v7.232c0.847,1.341,2.788,2.505,4.727,2.505c3.176,0,5.115-2.576,5.115-6.139
		C451.2,273.853,449.261,271.278,446.085,271.278L446.085,271.278z"/>
	<path style="fill:#FFFFFF;" d="M469.057,284.048c-1.341,1.481-3.28,2.292-5.574,2.292c-2.822,0-5.925-1.904-5.925-5.643
		c0-3.881,3.068-5.574,5.925-5.574c2.294,0,4.269,0.742,5.574,2.258v-2.823c0-2.115-1.729-3.385-4.162-3.385
		c-1.941,0-3.599,0.74-5.116,2.258l-1.376-2.187c1.906-1.871,4.234-2.788,6.986-2.788c3.703,0,6.842,1.623,6.842,5.962v11.5h-3.174
		V284.048L469.057,284.048z M469.057,279.285c-0.953-1.27-2.611-1.939-4.375-1.939c-2.292,0-3.914,1.376-3.914,3.385
		c0,2.012,1.622,3.387,3.914,3.387c1.764,0,3.422-0.671,4.375-1.941V279.285L469.057,279.285z"/>
	<path style="fill:#FFFFFF;" d="M488.817,275.017c0-2.823-1.447-3.739-3.633-3.739c-1.975,0-3.774,1.199-4.692,2.469v12.17h-3.174
		v-17.039h3.174v2.4c1.13-1.376,3.387-2.822,6.033-2.822c3.597,0,5.467,1.906,5.467,5.503v11.959h-3.174V275.017L488.817,275.017z"
		/>
	<path style="fill:#FFFFFF;" d="M498.103,290.01c1.164,0,1.939-0.388,2.469-1.658l0.987-2.258l-7.021-17.215h3.387l5.326,13.371
		l5.326-13.371H512l-8.395,20.284c-1.093,2.68-2.963,3.633-5.433,3.668c-0.528,0-1.481-0.106-1.975-0.246l0.494-2.857
		C497.078,289.904,497.678,290.01,498.103,290.01L498.103,290.01z"/>
	<path style="fill:#FFFFFF;" d="M304.485,64.418h15.998V78.49h0.361c0.382-1.267,1.364-2.858,2.96-4.75
		c1.582-1.897,3.595-3.721,6.082-5.425c2.466-1.705,5.412-3.171,8.754-4.378c3.37-1.2,7.085-1.807,11.153-1.807
		c6.699,0,12.371,1.407,16.941,4.199c4.591,2.789,8.324,6.966,11.248,12.549c2.897-5.583,7.014-9.76,12.363-12.549
		c5.339-2.792,10.723-4.199,16.191-4.199c6.966,0,12.707,1.144,17.129,3.409c4.426,2.291,7.92,5.303,10.463,9.049
		c2.56,3.753,4.296,8.008,5.253,12.753c0.941,4.777,1.423,9.697,1.423,14.773v52.543h-17.14v-50.271c0-3.416-0.203-6.72-0.655-9.898
		c-0.474-3.171-1.393-5.965-2.775-8.382c-1.396-2.406-3.363-4.339-5.893-5.79c-2.546-1.455-5.931-2.199-10.083-2.199
		c-8.274,0-14.167,2.535-17.716,7.624c-3.567,5.076-5.342,11.614-5.342,19.61v49.306h-17.126v-47.212
		c0-4.311-0.21-8.249-0.67-11.798c-0.445-3.568-1.329-6.636-2.672-9.235c-1.315-2.624-3.226-4.644-5.741-6.095
		c-2.452-1.455-5.772-2.199-9.957-2.199c-3.051,0-6.008,0.613-8.866,1.809c-2.835,1.207-5.37,3.017-7.528,5.42
		c-2.171,2.42-3.857,5.499-5.138,9.241c-1.263,3.76-1.891,8.151-1.891,13.248v46.822h-17.126V64.418L304.485,64.418z
		 M91.971,154.658H74.823v-13.9h-0.389c-2.137,4.833-5.9,8.733-11.207,11.701c-5.334,3.003-11.49,4.472-18.484,4.472
		c-4.437,0-8.639-0.649-12.542-1.993c-3.95-1.329-7.394-3.377-10.399-6.173c-2.978-2.806-5.356-6.376-7.117-10.761
		C12.891,133.62,12,128.437,12,122.47V64.417h17.161v53.319c0,4.184,0.569,7.765,1.712,10.747c1.114,2.974,2.637,5.405,4.555,7.222
		c1.905,1.834,4.09,3.181,6.577,4.002c2.465,0.827,5.022,1.242,7.698,1.242c3.55,0,6.857-0.551,9.908-1.705
		c3.065-1.157,5.717-2.95,8.001-5.43c2.286-2.486,4.047-5.625,5.3-9.428c1.297-3.816,1.911-8.302,1.911-13.514V64.417h17.148
		V154.658L91.971,154.658z M151.946,78.119c-4.564,0-8.681,0.799-12.363,2.388c-3.687,1.565-6.804,3.739-9.337,6.46
		c-2.53,2.75-4.49,6.037-5.893,9.923c-1.389,3.858-2.119,8.066-2.119,12.643c0,9.133,2.694,16.471,8.011,21.998
		c5.32,5.507,12.574,8.289,21.7,8.289c9.144,0,16.4-2.782,21.706-8.289c5.36-5.527,8.012-12.865,8.012-21.998
		c0-4.577-0.712-8.786-2.112-12.643c-1.368-3.886-3.342-7.173-5.9-9.923c-2.525-2.721-5.636-4.896-9.325-6.46
		C160.651,78.919,156.516,78.119,151.946,78.119L151.946,78.119L151.946,78.119z M198.794,153.885
		c0,6.864-1.172,13.111-3.508,18.765c-2.343,5.644-5.693,10.543-9.986,14.664c-4.349,4.132-9.522,7.328-15.636,9.628
		c-6.089,2.276-12.834,3.416-20.199,3.416c-8.618,0-16.516-1.214-23.696-3.623c-7.165-2.413-13.994-6.598-20.462-12.564
		l11.607-14.471c4.45,4.826,9.287,8.46,14.489,10.935c5.184,2.484,11.084,3.721,17.695,3.721c6.348,0,11.63-0.922,15.821-2.757
		c4.174-1.855,7.506-4.215,9.975-7.124c2.473-2.932,4.226-6.281,5.24-10.01c1.006-3.738,1.529-7.533,1.529-11.314v-13.332h-0.569
		c-3.304,5.446-7.79,9.48-13.454,12.09c-5.629,2.588-11.557,3.896-17.778,3.896c-6.598,0-12.736-1.178-18.372-3.528
		c-5.664-2.342-10.501-5.583-14.576-9.716c-4.058-4.107-7.243-8.992-9.523-14.65c-2.27-5.636-3.406-11.775-3.406-18.379
		c0-6.601,1.074-12.785,3.234-18.561c2.142-5.776,5.218-10.82,9.206-15.141c4.017-4.311,8.818-7.689,14.486-10.101
		c5.64-2.396,11.963-3.602,18.951-3.602c6.084,0,12.026,1.332,17.778,4.016c5.794,2.638,10.329,6.384,13.63,11.22h0.393V64.419
		h17.13V153.885L198.794,153.885L198.794,153.885z M263.914,111.262c-4.068,0-8.214,0.21-12.461,0.655
		c-4.268,0.446-8.137,1.298-11.595,2.564c-3.535,1.263-6.376,3.058-8.593,5.349c-2.22,2.283-3.336,5.198-3.336,8.744
		c0,5.219,1.74,8.958,5.223,11.247c3.51,2.273,8.232,3.413,14.183,3.413c4.701,0,8.726-0.793,12.017-2.382
		c3.318-1.599,5.972-3.63,7.997-6.194c2.045-2.532,3.494-5.352,4.374-8.47c0.88-3.097,1.343-6.177,1.343-9.228v-5.699H263.914
		L263.914,111.262L263.914,111.262z M215.566,75.454c4.837-4.437,10.374-7.783,16.754-9.996c6.331-2.216,12.679-3.329,19.038-3.329
		c6.583,0,12.276,0.824,17.028,2.47c4.77,1.648,8.659,3.875,11.718,6.664c3.048,2.795,5.289,6.004,6.755,9.61
		c1.459,3.623,2.172,7.397,2.172,11.332v46.073c0,3.181,0.09,6.106,0.214,8.765c0.136,2.67,0.315,5.198,0.568,7.615H274.58
		c-0.382-4.557-0.582-9.127-0.582-13.71h-0.358c-3.813,5.843-8.317,9.971-13.528,12.381c-5.205,2.406-11.227,3.602-18.105,3.602
		c-4.153,0-8.183-0.544-11.988-1.691c-3.809-1.143-7.138-2.854-9.975-5.138c-2.869-2.293-5.138-5.131-6.77-8.474
		c-1.641-3.384-2.484-7.282-2.484-11.729c0-5.829,1.288-10.719,3.911-14.642c2.603-3.946,6.176-7.155,10.662-9.632
		c4.504-2.48,9.786-4.234,15.801-5.317c6.019-1.08,12.466-1.62,19.315-1.62h12.585v-3.812c0-2.28-0.463-4.57-1.343-6.864
		c-0.88-2.266-2.224-4.335-3.985-6.169c-1.789-1.845-4.012-3.312-6.677-4.378c-2.644-1.077-5.833-1.634-9.547-1.634
		c-3.265,0-6.18,0.326-8.65,0.961c-2.466,0.627-4.713,1.424-6.734,2.377c-2.041,0.95-3.89,2.059-5.542,3.333
		c-1.651,1.276-3.212,2.475-4.759,3.605L215.566,75.454L215.566,75.454z"/>
	<path style="fill:#FFFFFF;" d="M218.634,189.005h4.255c1.266,0,2.28-0.294,3.083-0.852c0.789-0.565,1.193-1.449,1.193-2.659
		c0-1.196-0.404-2.101-1.193-2.662c-0.803-0.568-1.816-0.855-3.083-0.855h-4.255V189.005L218.634,189.005z M387.231,215.667h3.191
		l12.311,17.645h0.066v-17.645h2.514v21.24h-3.184l-12.304-17.645h-0.039v17.645h-2.557V215.667L387.231,215.667z M372.365,235.115
		c1.253,0,2.399-0.224,3.413-0.687c1.041-0.45,1.929-1.081,2.668-1.88c0.741-0.803,1.344-1.736,1.74-2.82
		c0.4-1.063,0.596-2.224,0.596-3.438c0-1.217-0.197-2.36-0.596-3.437c-0.396-1.073-0.999-2-1.74-2.799
		c-0.74-0.792-1.628-1.442-2.668-1.898c-1.014-0.462-2.161-0.676-3.413-0.676c-1.213,0-2.349,0.214-3.391,0.676
		c-1.014,0.456-1.905,1.106-2.651,1.898c-0.751,0.799-1.322,1.726-1.733,2.799c-0.397,1.077-0.618,2.22-0.618,3.437
		c0,1.214,0.221,2.375,0.618,3.438c0.41,1.084,0.982,2.016,1.733,2.82c0.747,0.799,1.638,1.431,2.651,1.88
		C370.016,234.89,371.152,235.115,372.365,235.115L372.365,235.115L372.365,235.115z M372.365,237.465
		c-1.588,0-3.083-0.273-4.44-0.842c-1.34-0.558-2.512-1.332-3.522-2.328c-0.992-0.989-1.747-2.175-2.301-3.542
		c-0.547-1.365-0.821-2.852-0.821-4.462c0-1.589,0.274-3.086,0.821-4.45c0.554-1.386,1.308-2.55,2.301-3.543
		c1.01-0.992,2.182-1.774,3.522-2.346c1.357-0.543,2.851-0.817,4.44-0.817c1.646,0,3.133,0.274,4.479,0.817
		c1.35,0.572,2.5,1.354,3.508,2.346c0.989,0.993,1.768,2.158,2.328,3.543c0.53,1.364,0.81,2.861,0.81,4.45
		c0,1.611-0.28,3.097-0.81,4.462c-0.561,1.367-1.34,2.553-2.328,3.542c-1.007,0.996-2.157,1.77-3.508,2.328
		C375.498,237.192,374.011,237.465,372.365,237.465L372.365,237.465L372.365,237.465z M354.993,215.666h2.536v21.24h-2.536V215.666
		L354.993,215.666z M352.328,217.99h-7.035v18.919h-2.515V217.99h-7.035v-2.323h16.586V217.99L352.328,217.99z M332.119,220.055
		c-0.645-0.866-1.41-1.512-2.377-1.951c-0.93-0.431-1.926-0.624-2.94-0.624c-1.189,0-2.259,0.228-3.251,0.708
		c-0.99,0.466-1.838,1.116-2.564,1.947c-0.733,0.799-1.294,1.743-1.669,2.816c-0.421,1.059-0.611,2.185-0.611,3.339
		c0,1.242,0.19,2.403,0.611,3.476c0.375,1.053,0.929,1.993,1.641,2.789c0.726,0.792,1.55,1.424,2.571,1.873
		c0.979,0.459,2.076,0.687,3.272,0.687c1.298,0,2.47-0.245,3.483-0.753c1.039-0.512,1.908-1.235,2.655-2.213l1.89,1.595
		c-0.937,1.288-2.08,2.22-3.437,2.824c-1.364,0.592-2.883,0.897-4.592,0.897c-1.497,0-2.925-0.273-4.247-0.842
		c-1.325-0.558-2.48-1.332-3.458-2.328c-0.965-0.989-1.705-2.175-2.252-3.522c-0.565-1.372-0.838-2.865-0.838-4.483
		c0-1.561,0.259-3.027,0.781-4.384c0.547-1.358,1.294-2.532,2.228-3.539c0.964-0.996,2.115-1.796,3.444-2.374
		c1.315-0.555,2.767-0.86,4.342-0.86c1.446,0,2.824,0.259,4.167,0.772c1.322,0.529,2.438,1.364,3.357,2.556L332.119,220.055
		L332.119,220.055L332.119,220.055z M304.445,218.921h-0.074l-4.398,10.444h8.67L304.445,218.921L304.445,218.921z M303.294,215.666
		h2.378l9.042,21.24h-2.953l-2.164-5.202h-10.613l-2.199,5.202h-2.855L303.294,215.666L303.294,215.666z M273.485,235.115
		c1.242,0,2.374-0.224,3.405-0.687c1.049-0.45,1.944-1.081,2.663-1.88c0.737-0.803,1.308-1.736,1.725-2.82
		c0.404-1.063,0.61-2.224,0.61-3.438c0-1.217-0.207-2.36-0.61-3.437c-0.417-1.073-0.988-2-1.725-2.799
		c-0.719-0.792-1.614-1.442-2.663-1.898c-1.031-0.462-2.163-0.676-3.405-0.676c-1.246,0-2.385,0.214-3.406,0.676
		c-1.042,0.456-1.926,1.106-2.638,1.898c-0.758,0.799-1.339,1.726-1.754,2.799c-0.403,1.077-0.607,2.22-0.607,3.437
		c0,1.214,0.204,2.375,0.607,3.438c0.414,1.084,0.996,2.016,1.754,2.82c0.712,0.799,1.596,1.431,2.638,1.88
		C271.099,234.89,272.239,235.115,273.485,235.115L273.485,235.115L273.485,235.115z M273.485,237.465
		c-1.604,0-3.111-0.273-4.465-0.842c-1.343-0.558-2.508-1.332-3.5-2.328c-0.986-0.989-1.754-2.175-2.319-3.542
		c-0.533-1.365-0.838-2.852-0.838-4.462c0-1.589,0.305-3.086,0.838-4.45c0.565-1.386,1.333-2.55,2.319-3.543
		c0.992-0.992,2.157-1.774,3.5-2.346c1.354-0.543,2.861-0.817,4.465-0.817c1.631,0,3.111,0.274,4.454,0.817
		c1.354,0.572,2.543,1.354,3.521,2.346c1.003,0.993,1.761,2.158,2.319,3.543c0.54,1.364,0.827,2.861,0.827,4.45
		c0,1.611-0.287,3.097-0.827,4.462c-0.558,1.367-1.316,2.553-2.319,3.542c-0.978,0.996-2.167,1.77-3.521,2.328
		C276.595,237.192,275.115,237.465,273.485,237.465L273.485,237.465L273.485,237.465z M260.942,217.99h-7.039v18.919h-2.515V217.99
		h-7.025v-2.323h16.58V217.99L260.942,217.99z M223.601,215.667h3.209l12.3,17.645h0.05v-17.645h2.553v21.24h-3.184L226.2,219.262
		h-0.046v17.645h-2.553V215.667L223.601,215.667z M216.097,215.666h2.539v21.24h-2.539V215.666L216.097,215.666z M534.068,183.395
		c-0.397-0.684-0.986-1.178-1.683-1.49c-0.688-0.305-1.421-0.47-2.183-0.47c-0.561,0-1.114,0.064-1.633,0.225
		c-0.53,0.14-1.049,0.333-1.466,0.62c-0.445,0.295-0.783,0.649-1.035,1.115c-0.26,0.466-0.386,0.993-0.386,1.614
		c0,0.487,0.057,0.911,0.214,1.283c0.158,0.372,0.383,0.702,0.747,0.989c0.336,0.319,0.806,0.6,1.396,0.859
		c0.544,0.263,1.288,0.516,2.097,0.768c0.828,0.274,1.618,0.544,2.385,0.849c0.793,0.294,1.466,0.68,2.066,1.146
		c0.558,0.452,1.049,1.038,1.421,1.726c0.333,0.684,0.498,1.554,0.498,2.581c0,1.067-0.183,1.993-0.614,2.768
		c-0.421,0.782-0.989,1.427-1.694,1.961c-0.684,0.491-1.473,0.863-2.371,1.122c-0.902,0.249-1.827,0.379-2.789,0.379
		c-0.599,0-1.245-0.067-1.855-0.172c-0.638-0.098-1.221-0.291-1.809-0.519c-0.562-0.215-1.088-0.516-1.582-0.895
		c-0.498-0.365-0.93-0.82-1.301-1.361l2.164-1.768c0.452,0.769,1.084,1.368,1.925,1.768c0.831,0.397,1.687,0.61,2.592,0.61
		c0.555,0,1.088-0.098,1.656-0.255c0.561-0.158,1.056-0.394,1.494-0.713c0.418-0.308,0.807-0.683,1.077-1.143
		c0.274-0.459,0.431-0.988,0.431-1.599c0-0.663-0.126-1.21-0.358-1.6c-0.207-0.404-0.554-0.769-1.013-1.07
		c-0.445-0.301-1.021-0.547-1.733-0.811c-0.705-0.242-1.536-0.522-2.459-0.841c-0.774-0.245-1.473-0.513-2.105-0.832
		c-0.648-0.305-1.22-0.669-1.669-1.119c-0.452-0.466-0.838-1.006-1.097-1.631c-0.288-0.618-0.418-1.379-0.418-2.27
		c0-1.031,0.193-1.922,0.611-2.668c0.39-0.754,0.908-1.4,1.596-1.916c0.684-0.505,1.473-0.894,2.337-1.146
		c0.848-0.249,1.747-0.379,2.682-0.379c1.2,0,2.291,0.161,3.305,0.544c0.985,0.361,1.883,1.013,2.638,1.918L534.068,183.395
		L534.068,183.395L534.068,183.395z M518.018,184.015c-0.617-0.853-1.396-1.494-2.343-1.939c-0.95-0.418-1.926-0.638-2.932-0.638
		c-1.178,0-2.293,0.242-3.269,0.719c-0.985,0.477-1.855,1.136-2.581,1.943c-0.713,0.797-1.266,1.751-1.663,2.817
		c-0.4,1.07-0.589,2.178-0.589,3.335c0,1.27,0.189,2.42,0.589,3.483c0.397,1.059,0.951,1.995,1.663,2.798
		c0.712,0.79,1.56,1.407,2.556,1.852c1,0.463,2.066,0.719,3.294,0.719c1.288,0,2.452-0.267,3.465-0.786
		c1.028-0.495,1.919-1.242,2.673-2.203l1.905,1.6c-0.944,1.28-2.112,2.224-3.472,2.82c-1.372,0.596-2.877,0.906-4.571,0.906
		c-1.519,0-2.954-0.295-4.254-0.849c-1.336-0.551-2.48-1.34-3.452-2.318c-0.978-0.999-1.725-2.157-2.3-3.539
		c-0.537-1.343-0.804-2.845-0.804-4.482c0-1.554,0.26-2.989,0.804-4.377c0.519-1.346,1.245-2.529,2.217-3.536
		c0.974-0.992,2.111-1.792,3.412-2.374c1.343-0.576,2.803-0.849,4.378-0.849c1.438,0,2.824,0.239,4.139,0.764
		c1.36,0.519,2.459,1.375,3.363,2.564L518.018,184.015L518.018,184.015L518.018,184.015z M495.652,179.642h2.529v21.248h-2.529
		V179.642L495.652,179.642z M492.986,181.977h-7.029v18.912h-2.529v-18.912h-7.014v-2.336h16.573V181.977L492.986,181.977z
		 M465.305,191.738l-7.913-12.097h3.205l5.98,9.617l6.138-9.617h3.037l-7.934,12.097v9.148h-2.514V191.738L465.305,191.738z
		 M448.918,179.641v21.248h12.248v-2.329h-9.725v-18.919H448.918L448.918,179.641z M436.109,182.881h-0.057l-4.401,10.452h8.671
		L436.109,182.881L436.109,182.881z M434.972,179.641h2.37l9.063,21.247h-2.953l-2.164-5.216h-10.634l-2.172,5.216h-2.861
		L434.972,179.641L434.972,179.641z M405.007,179.641h3.192l12.325,17.646h0.042v-17.646h2.532v21.248h-3.171l-12.311-17.66h-0.049
		v17.66h-2.56V179.641L405.007,179.641z M392.232,182.881h-0.071l-4.394,10.452h8.663L392.232,182.881L392.232,182.881z
		 M391.102,179.641h2.357l9.034,21.247h-2.939l-2.178-5.216H386.77l-2.185,5.216h-2.882L391.102,179.641L391.102,179.641z
		 M371.16,199.453c-1.242,0.677-2.515,1.189-3.872,1.511c-1.354,0.316-2.704,0.473-4.1,0.473c-1.645,0-3.196-0.266-4.563-0.796
		c-1.378-0.562-2.556-1.315-3.584-2.29c-1.006-1.003-1.786-2.168-2.344-3.546c-0.575-1.343-0.862-2.88-0.862-4.553
		c0-1.658,0.308-3.191,0.891-4.583c0.596-1.351,1.41-2.516,2.459-3.501c1.041-0.961,2.241-1.715,3.63-2.252
		c1.378-0.561,2.872-0.803,4.468-0.803c1.403,0,2.732,0.186,4.04,0.625c1.28,0.407,2.452,1.143,3.473,2.136l-1.901,1.998
		c-0.709-0.774-1.572-1.382-2.638-1.796c-0.996-0.417-2.062-0.641-3.167-0.641c-1.199,0-2.322,0.224-3.363,0.666
		c-1.063,0.441-1.985,1.052-2.739,1.834c-0.761,0.774-1.364,1.704-1.803,2.781c-0.418,1.095-0.636,2.256-0.636,3.535
		c0,1.274,0.218,2.438,0.636,3.521c0.439,1.081,1.041,2.02,1.803,2.824c0.754,0.771,1.719,1.403,2.796,1.831
		c1.055,0.441,2.266,0.673,3.566,0.673c0.846,0,1.744-0.106,2.701-0.33c0.946-0.203,1.795-0.498,2.567-0.901v-6.524h-4.883v-2.344
		h7.426V199.453L371.16,199.453L371.16,199.453z M330.01,179.641h3.193l12.317,17.646h0.043v-17.646h2.518v21.248h-3.178
		l-12.289-17.66h-0.074v17.66h-2.529V179.641L330.01,179.641z M322.507,179.642h2.537v21.248h-2.537V179.642L322.507,179.642z
		 M306.993,189.005h2.235c0.712,0,1.452-0.035,2.206-0.056c0.719-0.039,1.424-0.176,2.048-0.39c0.655-0.224,1.15-0.574,1.575-1.059
		c0.41-0.449,0.603-1.112,0.603-2.006c0-0.751-0.144-1.382-0.438-1.838c-0.295-0.462-0.702-0.81-1.193-1.063
		c-0.481-0.252-1.042-0.41-1.645-0.494c-0.624-0.084-1.228-0.122-1.863-0.122h-3.528V189.005L306.993,189.005z M304.485,179.641
		h5.411c1.042,0,2.042,0.064,3.069,0.179c1.007,0.115,1.884,0.375,2.694,0.776c0.799,0.403,1.452,0.981,1.964,1.754
		c0.502,0.772,0.733,1.823,0.733,3.146c0,1.557-0.445,2.817-1.431,3.777c-0.912,0.972-2.213,1.558-3.876,1.824l6.047,9.792h-3.09
		l-5.78-9.54h-3.234v9.54h-2.507V179.641L304.485,179.641z M286.969,179.641h13.353v2.336h-10.817v6.664h10.108v2.339h-10.108v7.579
		h11.357v2.329h-13.893V179.641L286.969,179.641z M255.893,179.641h2.781l4.848,17.646h0.049l5.222-17.646h2.841l5.181,17.646h0.067
		l4.924-17.646h2.631l-6.226,21.248h-2.736l-5.265-18.007h-0.062l-5.272,18.007h-2.756L255.893,179.641L255.893,179.641z
		 M243.487,199.103c1.234,0,2.385-0.253,3.412-0.719c1.031-0.445,1.929-1.063,2.652-1.862c0.758-0.824,1.319-1.747,1.747-2.812
		c0.39-1.081,0.59-2.224,0.59-3.455c0-1.207-0.2-2.35-0.59-3.427c-0.428-1.056-0.99-1.985-1.747-2.812
		c-0.723-0.796-1.62-1.435-2.652-1.884c-1.027-0.474-2.178-0.694-3.412-0.694c-1.225,0-2.399,0.221-3.427,0.694
		c-1.006,0.449-1.898,1.088-2.638,1.884c-0.716,0.827-1.294,1.757-1.726,2.812c-0.417,1.077-0.631,2.22-0.631,3.427
		c0,1.231,0.215,2.375,0.631,3.455c0.431,1.066,1.01,1.988,1.726,2.812c0.74,0.799,1.632,1.417,2.638,1.862
		C241.088,198.85,242.262,199.103,243.487,199.103L243.487,199.103L243.487,199.103z M243.487,201.439
		c-1.632,0-3.111-0.294-4.448-0.849c-1.367-0.547-2.519-1.339-3.514-2.314c-1.021-1-1.747-2.174-2.33-3.556
		c-0.533-1.365-0.806-2.848-0.806-4.465c0-1.599,0.273-3.069,0.806-4.447c0.583-1.379,1.309-2.55,2.33-3.543
		c0.995-0.985,2.147-1.775,3.514-2.328c1.337-0.558,2.816-0.82,4.448-0.82c1.634,0,3.121,0.262,4.465,0.82
		c1.336,0.554,2.522,1.343,3.5,2.328c1.017,0.993,1.765,2.164,2.319,3.543c0.553,1.378,0.821,2.848,0.821,4.447
		c0,1.617-0.268,3.1-0.821,4.465c-0.554,1.382-1.302,2.556-2.319,3.556c-0.978,0.975-2.163,1.768-3.5,2.314
		C246.608,201.145,245.122,201.439,243.487,201.439L243.487,201.439L243.487,201.439z M216.095,179.641h6.334
		c0.948,0,1.908,0.094,2.803,0.284c0.884,0.175,1.683,0.492,2.371,0.967c0.691,0.439,1.245,1.049,1.641,1.783
		c0.424,0.76,0.624,1.683,0.624,2.788c0,1.157-0.211,2.126-0.663,2.873c-0.445,0.758-1.007,1.375-1.715,1.813
		c-0.67,0.445-1.438,0.754-2.259,0.927c-0.803,0.182-1.593,0.273-2.343,0.273h-4.255v9.54h-2.539V179.641L216.095,179.641z"/>
	<path style="fill:#FFFFFF;" d="M490.377,43.25c0,6.99-5.658,12.644-12.651,12.644c-7.008,0-12.647-5.654-12.647-12.644
		c0-6.982,5.639-12.657,12.647-12.657C484.719,30.593,490.377,36.268,490.377,43.25L490.377,43.25L490.377,43.25z M465.914,18.644
		c0-6.993-5.651-12.644-12.634-12.644c-6.994,0-12.658,5.651-12.658,12.644c0,6.969,5.664,12.641,12.658,12.641
		C460.263,31.285,465.914,25.614,465.914,18.644L465.914,18.644L465.914,18.644z M489.958,141.776
		c0,6.991-5.643,12.668-12.65,12.668c-6.983,0-12.641-5.678-12.641-12.668c0-6.969,5.657-12.637,12.641-12.637
		C484.315,129.139,489.958,134.806,489.958,141.776L489.958,141.776z"/>
	<path style="fill:#F49220;" d="M515.456,67.224c0,7.004-5.665,12.661-12.644,12.661c-6.99,0-12.654-5.657-12.654-12.661
		c0-6.969,5.664-12.631,12.654-12.631C509.791,54.593,515.456,60.254,515.456,67.224L515.456,67.224L515.456,67.224z
		 M515.12,116.625c0,6.959-5.671,12.648-12.644,12.648c-6.982,0-12.641-5.689-12.641-12.648c0-6.973,5.658-12.652,12.641-12.652
		C509.449,103.974,515.12,109.652,515.12,116.625L515.12,116.625L515.12,116.625z M540,91.73c0-6.965-5.657-12.644-12.658-12.644
		c-6.969,0-12.641,5.678-12.641,12.644c0,6.987,5.672,12.676,12.641,12.676C534.343,104.406,540,98.717,540,91.73L540,91.73z"/>
</g>
</svg>
