<svg  viewBox="0 0 1440 580" fill="none" xmlns="http://www.w3.org/2000/svg">
<path d="M357.104 458.095L374.554 443.967L262.388 443.967L239.953 458.095L357.104 458.095Z" fill="#001A5C"/>
<path d="M705.834 473.537L708.559 458.095L591.407 458.095L583.233 473.537L705.834 473.537Z" fill="#001A5C"/>
<path d="M828.435 473.537L825.71 458.095L708.559 458.095L705.834 473.537H705.881L828.435 473.537Z" fill="#001A5C"/>
<path d="M951.036 473.537L942.862 458.095L825.71 458.095L828.435 473.537L951.036 473.537Z" fill="#001A5C"/>
<path d="M1073.64 473.537L1060.01 458.095L942.862 458.095L951.036 473.537L1073.64 473.537Z" fill="#001A5C"/>
<path d="M993.076 552.955L1006.77 578.827L1166.53 578.827L1143.7 552.955L993.076 552.955Z" fill="#001A5C"/>
<path d="M676.237 641.277L494.441 641.277L474.239 679.442H665.663H669.503L676.237 641.277Z" fill="#001A5C"/>
<path d="M687.256 578.827L691.821 552.955L541.194 552.955L527.499 578.827L687.256 578.827Z" fill="#001A5C"/>
<path d="M1022.23 608.037L852.167 608.037L858.032 641.277L1039.83 641.277L1022.23 608.037Z" fill="#001A5C"/>
<path d="M688.194 578.827H687.256L682.102 608.037L852.167 608.037L847.013 578.827L688.194 578.827Z" fill="#001A5C"/>
<path d="M676.237 641.277L858.032 641.277L852.167 608.037L682.102 608.037L676.237 641.277Z" fill="#001A5C"/>
<path d="M681.694 608.037L512.037 608.037L494.441 641.277L676.237 641.277L682.102 608.037H681.694Z" fill="#001A5C"/>
<path d="M687.256 578.827L527.499 578.827L512.037 608.037L681.694 608.037H682.102L687.256 578.827Z" fill="#001A5C"/>
<path d="M367.742 578.827L341.971 608.037L512.037 608.037L527.499 578.827L367.742 578.827Z" fill="#001A5C"/>
<path d="M474.239 679.442L494.441 641.277L312.646 641.277L278.975 679.442H474.239Z" fill="#001A5C"/>
<path d="M494.441 641.277L512.037 608.037L341.971 608.037L312.646 641.277L494.441 641.277Z" fill="#001A5C"/>
<path d="M244.868 718.103L453.774 718.103L474.239 679.442H278.975L244.868 718.103Z" fill="#001A5C"/>
<path d="M423.292 775.688H194.063L139.475 837.563H390.539L423.292 775.688Z" fill="#001A5C"/>
<path d="M453.774 718.103L244.868 718.103L194.063 775.688H423.292L453.774 718.103Z" fill="#001A5C"/>
<path d="M73.392 912.467L350.889 912.467L390.539 837.563H139.475L73.392 912.467Z" fill="#001A5C"/>
<path d="M641.603 837.563L652.521 775.688H650.445L423.292 775.688L390.539 837.563L640.065 837.563H641.603Z" fill="#001A5C"/>
<path d="M640.065 837.563L390.539 837.563L350.889 912.467H628.385L641.603 837.563H640.065Z" fill="#001A5C"/>
<path d="M661.581 724.339L662.681 718.103L453.774 718.103L423.292 775.688L650.445 775.688H652.521L661.581 724.339Z" fill="#001A5C"/>
<path d="M669.503 679.442H665.663H474.239L453.774 718.103L662.681 718.103L669.503 679.442Z" fill="#001A5C"/>
<path d="M881.749 775.688L871.588 718.103L662.681 718.103L661.581 724.339L652.521 775.688L881.749 775.688Z" fill="#001A5C"/>
<path d="M858.032 641.277L676.237 641.277L669.503 679.442L864.766 679.442L858.032 641.277Z" fill="#001A5C"/>
<path d="M864.766 679.442L669.503 679.442L662.681 718.103L871.588 718.103L864.766 679.442Z" fill="#001A5C"/>
<path d="M652.521 775.688L641.603 837.563L892.667 837.563L881.749 775.688L652.521 775.688Z" fill="#001A5C"/>
<path d="M628.385 912.467H905.884L892.667 837.563L641.603 837.563L628.385 912.467Z" fill="#001A5C"/>
<path d="M1183.38 912.467L1143.73 837.563L892.667 837.563L905.884 912.467H1183.38Z" fill="#001A5C"/>
<path d="M1110.98 775.688L881.749 775.688L892.667 837.563L1143.73 837.563L1110.98 775.688Z" fill="#001A5C"/>
<path d="M858.032 641.277L864.766 679.442L1060.03 679.442L1039.83 641.277L858.032 641.277Z" fill="#001A5C"/>
<path d="M871.588 718.103L881.749 775.688L1110.98 775.688L1080.5 718.103H871.588Z" fill="#001A5C"/>
<path d="M864.766 679.442L871.588 718.103H1080.5L1060.03 679.442L864.766 679.442Z" fill="#001A5C"/>
<path d="M1289.4 718.103L1255.29 679.442H1060.03L1080.5 718.103L1289.4 718.103Z" fill="#001A5C"/>
<path d="M1110.98 775.688H1340.21L1289.4 718.103L1080.5 718.103L1110.98 775.688Z" fill="#001A5C"/>
<path d="M1143.73 837.563H1394.79L1340.21 775.688H1110.98L1143.73 837.563Z" fill="#001A5C"/>
<path d="M1143.73 837.563L1183.38 912.467H1460.88L1394.79 837.563H1143.73Z" fill="#001A5C"/>
<path d="M1569.43 775.688L1498.31 718.103H1289.4L1340.21 775.688L1569.43 775.688Z" fill="#001A5C"/>
<path d="M1255.29 679.442L1289.4 718.103H1498.31L1450.56 679.442L1255.29 679.442Z" fill="#001A5C"/>
<path d="M1340.21 775.688L1394.79 837.563L1645.86 837.563L1569.43 775.688L1340.21 775.688Z" fill="#001A5C"/>
<path d="M1143.7 552.955L1166.53 578.827L1326.28 578.827L1294.33 552.955L1143.7 552.955Z" fill="#001A5C"/>
<path d="M1217.17 490.486L1088.59 490.486L1105.08 509.173L1240.25 509.173L1217.17 490.486Z" fill="#001A5C"/>
<path d="M1060.01 458.095L1073.64 473.537L1196.24 473.537L1177.17 458.095L1060.01 458.095Z" fill="#001A5C"/>
<path d="M1159.72 443.967L1047.55 443.967L1060.01 458.095L1177.17 458.095L1159.72 443.967Z" fill="#001A5C"/>
<path d="M935.384 443.967L942.862 458.095L1060.01 458.095L1047.55 443.967L935.384 443.967Z" fill="#001A5C"/>
<path d="M711.052 443.967L708.559 458.095L825.71 458.095L942.862 458.095L935.384 443.967L711.052 443.967Z" fill="#001A5C"/>
<path d="M831.425 490.486L834.723 509.173L969.9 509.173L960.008 490.486L831.425 490.486Z" fill="#001A5C"/>
<path d="M951.036 473.537L828.435 473.537L831.425 490.486L960.008 490.486L951.036 473.537Z" fill="#001A5C"/>
<path d="M1006.77 578.827L847.013 578.827L852.167 608.037L1022.23 608.037L1006.77 578.827Z" fill="#001A5C"/>
<path d="M980.861 529.88L838.376 529.88L842.448 552.955L993.076 552.955L980.861 529.88Z" fill="#001A5C"/>
<path d="M969.9 509.173L834.723 509.173L838.376 529.88L980.861 529.88L969.9 509.173Z" fill="#001A5C"/>
<path d="M842.448 552.955L847.013 578.827L1006.77 578.827L993.076 552.955L842.448 552.955Z" fill="#001A5C"/>
<path d="M993.076 552.955L1143.7 552.955L1123.34 529.881L980.861 529.88L993.076 552.955Z" fill="#001A5C"/>
<path d="M1105.08 509.173L969.9 509.173L980.861 529.88L1123.34 529.881L1105.08 509.173Z" fill="#001A5C"/>
<path d="M1073.64 473.537L951.036 473.537L960.008 490.486L1088.59 490.486L1073.64 473.537Z" fill="#001A5C"/>
<path d="M1105.08 509.173L1088.59 490.486L960.008 490.486L969.9 509.173L1105.08 509.173Z" fill="#001A5C"/>
<path d="M1022.23 608.037L1039.83 641.277L1221.62 641.277L1192.3 608.037L1022.23 608.037Z" fill="#001A5C"/>
<path d="M1166.53 578.827L1006.77 578.827L1022.23 608.037L1192.3 608.037L1166.53 578.827Z" fill="#001A5C"/>
<path d="M1039.83 641.277L1060.03 679.442H1255.29L1221.62 641.277L1039.83 641.277Z" fill="#001A5C"/>
<path d="M1221.62 641.277L1403.42 641.277L1362.36 608.037L1192.3 608.037L1221.62 641.277Z" fill="#001A5C"/>
<path d="M1326.28 578.827L1166.53 578.827L1192.3 608.037L1362.36 608.037L1326.28 578.827Z" fill="#001A5C"/>
<path d="M1240.25 509.173L1105.08 509.173L1123.34 529.881L1265.83 529.881L1240.25 509.173Z" fill="#001A5C"/>
<path d="M1088.59 490.486L1217.17 490.486L1196.24 473.537L1073.64 473.537L1088.59 490.486Z" fill="#001A5C"/>
<path d="M1143.7 552.955L1294.33 552.955L1265.83 529.881L1123.34 529.881L1143.7 552.955Z" fill="#001A5C"/>
<path d="M1444.96 552.955L1408.31 529.881L1265.83 529.881L1294.33 552.955L1444.96 552.955Z" fill="#001A5C"/>
<path d="M1294.33 552.955L1326.28 578.827L1486.04 578.827L1444.96 552.955L1294.33 552.955Z" fill="#001A5C"/>
<path d="M1255.29 679.442L1450.56 679.442L1403.42 641.277L1221.62 641.277L1255.29 679.442Z" fill="#001A5C"/>
<path d="M1362.36 608.037L1532.43 608.037L1486.04 578.827L1326.28 578.827L1362.36 608.037Z" fill="#001A5C"/>
<path d="M1403.42 641.277L1585.21 641.277L1532.43 608.037L1362.36 608.037L1403.42 641.277Z" fill="#001A5C"/>
<path d="M1217.17 490.486L1240.25 509.173L1375.43 509.173L1345.75 490.486L1217.17 490.486Z" fill="#001A5C"/>
<path d="M1177.17 458.095L1196.24 473.537L1318.84 473.537L1294.32 458.095H1177.17Z" fill="#001A5C"/>
<path d="M1159.72 443.967L1177.17 458.095H1294.32L1271.88 443.968L1159.72 443.967Z" fill="#001A5C"/>
<path d="M1196.24 473.537L1217.17 490.486L1345.75 490.486L1318.84 473.537L1196.24 473.537Z" fill="#001A5C"/>
<path d="M1240.25 509.173L1265.83 529.881L1408.31 529.881L1375.43 509.173L1240.25 509.173Z" fill="#001A5C"/>
<path d="M692.327 552.955L842.448 552.955L838.376 529.88L695.893 529.88L691.821 552.955H692.327Z" fill="#001A5C"/>
<path d="M842.448 552.955L692.327 552.955H691.821L687.256 578.827H688.194L847.013 578.827L842.448 552.955Z" fill="#001A5C"/>
<path d="M699.546 509.173L695.893 529.88L838.376 529.88L834.723 509.173L699.546 509.173Z" fill="#001A5C"/>
<path d="M705.881 473.537H705.834L702.843 490.486L831.425 490.486L828.435 473.537L705.881 473.537Z" fill="#001A5C"/>
<path d="M702.843 490.486L699.546 509.173L834.723 509.173L831.425 490.486L702.843 490.486Z" fill="#001A5C"/>
<path d="M695.893 529.88L553.408 529.88L541.194 552.955L691.821 552.955L695.893 529.88Z" fill="#001A5C"/>
<path d="M705.834 473.537L583.233 473.537L574.262 490.486L702.843 490.486L705.834 473.537Z" fill="#001A5C"/>
<path d="M699.546 509.173L702.843 490.486L574.262 490.486L564.37 509.173L699.546 509.173Z" fill="#001A5C"/>
<path d="M695.893 529.88L699.546 509.173L564.37 509.173L553.408 529.88L695.893 529.88Z" fill="#001A5C"/>
<path d="M598.885 443.968L591.407 458.095L708.559 458.095L711.052 443.967L598.885 443.968Z" fill="#001A5C"/>
<path d="M474.256 458.095L591.407 458.095L598.885 443.968L486.72 443.967L474.256 458.095Z" fill="#001A5C"/>
<path d="M583.233 473.537L591.407 458.095L474.256 458.095L460.632 473.537L583.233 473.537Z" fill="#001A5C"/>
<path d="M445.68 490.486L429.193 509.173L564.37 509.173L574.262 490.486L445.68 490.486Z" fill="#001A5C"/>
<path d="M583.233 473.537L460.632 473.537L445.68 490.486L574.262 490.486L583.233 473.537Z" fill="#001A5C"/>
<path d="M527.499 578.827L541.194 552.955L390.567 552.955L367.742 578.827L527.499 578.827Z" fill="#001A5C"/>
<path d="M541.194 552.955L553.408 529.88L410.924 529.88L390.567 552.955L541.194 552.955Z" fill="#001A5C"/>
<path d="M553.408 529.88L564.37 509.173L429.193 509.173L410.924 529.88L553.408 529.88Z" fill="#001A5C"/>
<path d="M317.098 490.485L294.016 509.173L429.193 509.173L445.68 490.486L317.098 490.485Z" fill="#001A5C"/>
<path d="M460.632 473.537L338.031 473.537L317.098 490.485L445.68 490.486L460.632 473.537Z" fill="#001A5C"/>
<path d="M460.632 473.537L474.256 458.095L357.104 458.095L338.031 473.537L460.632 473.537Z" fill="#001A5C"/>
<path d="M374.554 443.967L357.104 458.095L474.256 458.095L486.72 443.967L374.554 443.967Z" fill="#001A5C"/>
<path d="M410.924 529.88L429.193 509.173L294.016 509.173L268.44 529.88L410.924 529.88Z" fill="#001A5C"/>
<path d="M390.567 552.955L410.924 529.88L268.44 529.88L239.94 552.955L390.567 552.955Z" fill="#001A5C"/>
<path d="M207.985 578.827L367.742 578.827L390.567 552.955L239.94 552.955L207.985 578.827Z" fill="#001A5C"/>
<path d="M341.971 608.037L367.742 578.827L207.985 578.827L171.906 608.037L341.971 608.037Z" fill="#001A5C"/>
<path d="M312.646 641.277L341.971 608.037L171.906 608.037L130.851 641.277L312.646 641.277Z" fill="#001A5C"/>
<path d="M278.975 679.442L312.646 641.277L130.851 641.277L83.7115 679.442L278.975 679.442Z" fill="#001A5C"/>
<path d="M244.868 718.103L278.975 679.442L83.7115 679.442L35.9609 718.103L244.868 718.103Z" fill="#001A5C"/>
<path d="M139.475 837.563L194.063 775.688L-35.1649 775.688L-111.589 837.563L139.475 837.563Z" fill="#001A5C"/>
<path d="M194.063 775.688L244.868 718.103L35.9609 718.103L-35.1649 775.688L194.063 775.688Z" fill="#001A5C"/>
<path d="M73.392 912.467L139.475 837.563L-111.589 837.563L-204.105 912.467H73.392Z" fill="#001A5C"/>
<path d="M-111.553 679.442L-172.946 718.103H35.9609L83.7115 679.442H-111.553Z" fill="#001A5C"/>
<path d="M-35.1649 775.688L35.9609 718.103H-172.946L-264.394 775.688L-35.1649 775.688Z" fill="#001A5C"/>
<path d="M130.851 641.277L-50.9453 641.277L-111.553 679.442H83.7115L130.851 641.277Z" fill="#001A5C"/>
<path d="M207.985 578.827L48.2275 578.827L1.8407 608.037L171.906 608.037L207.985 578.827Z" fill="#001A5C"/>
<path d="M130.851 641.277L171.906 608.037L1.8407 608.037L-50.9453 641.277L130.851 641.277Z" fill="#001A5C"/>
<path d="M239.94 552.955L89.3125 552.955L48.2275 578.827L207.985 578.827L239.94 552.955Z" fill="#001A5C"/>
<path d="M239.94 552.955L268.44 529.88L125.956 529.88L89.3125 552.955L239.94 552.955Z" fill="#001A5C"/>
<path d="M294.016 509.173L317.098 490.485L188.516 490.485L158.84 509.173L294.016 509.173Z" fill="#001A5C"/>
<path d="M357.104 458.095L239.953 458.095L215.43 473.537L338.031 473.537L357.104 458.095Z" fill="#001A5C"/>
<path d="M317.098 490.485L338.031 473.537L215.43 473.537L188.516 490.485L317.098 490.485Z" fill="#001A5C"/>
<path d="M268.44 529.88L294.016 509.173L158.84 509.173L125.956 529.88L268.44 529.88Z" fill="#001A5C"/>
<path d="M122.802 458.095L92.8298 473.537L215.43 473.537L239.953 458.095L122.802 458.095Z" fill="#001A5C"/>
<path d="M150.221 443.968L122.802 458.095L239.953 458.095L262.388 443.967L150.221 443.968Z" fill="#001A5C"/>
<path d="M158.84 509.173L188.516 490.485L59.9341 490.485L23.6635 509.173L158.84 509.173Z" fill="#001A5C"/>
<path d="M188.516 490.485L215.43 473.537L92.8298 473.537L59.9341 490.485L188.516 490.485Z" fill="#001A5C"/>
<path d="M-16.5282 529.88L125.956 529.88L158.84 509.173L23.6635 509.173L-16.5282 529.88Z" fill="#001A5C"/>
<path d="M-111.529 578.827L48.2275 578.827L89.3125 552.955L-61.314 552.955L-111.529 578.827Z" fill="#001A5C"/>
<path d="M1.8407 608.037L48.2275 578.827L-111.529 578.827L-168.224 608.037L1.8407 608.037Z" fill="#001A5C"/>
<path d="M-232.74 641.277L-50.9453 641.277L1.8407 608.037L-168.224 608.037L-232.74 641.277Z" fill="#001A5C"/>
<path d="M89.3125 552.955L125.956 529.88L-16.5282 529.88L-61.314 552.955L89.3125 552.955Z" fill="#001A5C"/>
<path d="M-159.013 529.88L-211.941 552.955L-61.314 552.955L-16.5282 529.88L-159.013 529.88Z" fill="#001A5C"/>
<path d="M23.6635 509.173L-111.513 509.173L-159.013 529.88L-16.5282 529.88L23.6635 509.173Z" fill="#001A5C"/>
<path d="M23.6635 509.173L59.9341 490.485L-68.6481 490.485L-111.513 509.173L23.6635 509.173Z" fill="#001A5C"/>
<path d="M122.802 458.095L150.221 443.968L38.0562 443.967L5.64978 458.095L122.802 458.095Z" fill="#001A5C"/>
<path d="M-111.502 458.095L-152.373 473.537L-29.7712 473.537L5.64978 458.095L-111.502 458.095Z" fill="#001A5C"/>
<path d="M-74.1097 443.967L-111.502 458.095L5.64978 458.095L38.0562 443.967L-74.1097 443.967Z" fill="#001A5C"/>
<path d="M-152.373 473.537L-197.23 490.485L-68.6481 490.485L-29.7712 473.537L-152.373 473.537Z" fill="#001A5C"/>
<path d="M59.9341 490.485L92.8298 473.537L-29.7712 473.537L-68.6481 490.485L59.9341 490.485Z" fill="#001A5C"/>
<path d="M122.802 458.095L5.64978 458.095L-29.7712 473.537L92.8298 473.537L122.802 458.095Z" fill="#001A5C"/>
<path d="M1411.47 458.095L1384.05 443.968L1271.88 443.968L1294.32 458.095H1411.47Z" fill="#001A5C"/>
<path d="M1294.32 458.095L1318.84 473.537L1441.44 473.537L1411.47 458.095H1294.32Z" fill="#001A5C"/>
<path d="M1345.75 490.486L1474.34 490.486L1441.44 473.537L1318.84 473.537L1345.75 490.486Z" fill="#001A5C"/>
<path d="M1345.75 490.486L1375.43 509.173L1510.61 509.173L1474.34 490.486L1345.75 490.486Z" fill="#001A5C"/>
<g filter="url(#filter0_di_1_83)">
<path d="M1407.31 529.881L1549.8 529.881L1509.61 509.173L1374.43 509.173L1407.31 529.881Z" fill="#001A5C"/>
<path d="M1407.31 529.881L1443.96 552.955L1594.58 552.955L1549.8 529.881L1407.31 529.881Z" fill="#001A5C"/>
<path d="M1494.13 442.859L2782.12 1005M2471.97 1005L1594.58 552.955M1382.79 443.836L1383.05 443.968M2161.82 1005L1584.21 641.277M1270.88 443.968L1293.32 458.095M1270.88 443.968L1158.72 443.968M1270.88 443.968L1383.05 443.968M1851.66 1005L1644.86 837.564M1158.36 443.678L1158.72 443.968M1541.51 1005L1459.88 912.467M1046.29 443.678L1046.55 443.968M934.23 443.678L934.384 443.967M1231.36 1005L1182.38 912.467M921.211 1005L904.884 912.467M822.217 443.968L824.71 458.095M611.059 1005L640.603 837.563M710.103 443.678L710.052 443.967M300.908 1005L349.889 912.467M597.885 443.968L590.407 458.095M597.885 443.968L710.052 443.967M597.885 443.968L485.72 443.967M-9.24341 1005L72.3918 912.467M485.975 443.678L485.72 443.967M-319.395 1005L-205.105 912.467M373.911 443.678L373.554 443.967M-629.546 1005L-265.394 775.688M261.428 443.942L261.388 443.967M-939.697 1005L-233.74 641.277M149.222 443.968L121.802 458.095M149.222 443.968L37.0562 443.967M149.222 443.968L261.388 443.967M-1249.85 1005L-212.941 552.955M37.7196 443.678L37.0562 443.967M-75.1096 443.967L-1560 1005M-75.1096 443.967L37.0562 443.967M-75.1096 443.967L-112.502 458.095M2569.86 912.467H1459.88M-1315.09 912.467L-205.105 912.467M-1116.84 837.563L-112.589 837.563M2394.97 837.564L1644.86 837.564M2251.74 775.689L1568.43 775.689M-952.846 775.688L-265.394 775.688M-811.801 718.102L-173.946 718.103M2133.83 718.103L1497.31 718.103M-698.809 679.442L-112.553 679.442M2028.13 679.442L1449.56 679.442M1947.81 641.277L1584.21 641.277M-597.332 641.277L-233.74 641.277M1870.74 608.037L1531.43 608.037M-509.355 608.037L-169.224 608.037M1806.43 578.827L1485.04 578.827M-432.044 578.827L-112.529 578.827M1747.85 552.955L1594.58 552.955M-365.191 552.955L-212.941 552.955M1692.28 529.881L1549.8 529.881M-302.497 529.88H-160.013M1644.78 509.173L1509.61 509.173M-247.69 509.173L-112.513 509.173M1601.92 490.486L1473.34 490.486M-153.373 473.537L-30.7712 473.537M-153.373 473.537L-112.502 458.095M-153.373 473.537L-198.23 490.485L-69.6481 490.485M1563.13 473.537L1440.44 473.537M1527.62 458.095L1410.47 458.095M-112.502 458.095L4.6499 458.095M1497.18 443.968L1383.05 443.968M701.843 490.486L830.425 490.486M701.843 490.486L704.834 473.537M701.843 490.486L698.546 509.173M701.843 490.486L573.261 490.486M698.546 509.173L833.722 509.173M698.546 509.173L694.892 529.88M698.546 509.173L563.37 509.173M694.892 529.88L837.376 529.881M694.892 529.88L690.821 552.955M694.892 529.88L552.408 529.88M675.237 641.277L857.032 641.277M675.237 641.277L668.503 679.442M675.237 641.277L493.441 641.277M675.237 641.277L681.102 608.037M627.385 912.467H349.889M627.385 912.467L640.603 837.563M627.385 912.467H904.884M121.802 458.095L4.6499 458.095M121.802 458.095L238.953 458.095M121.802 458.095L91.8298 473.537M37.0562 443.967L4.6499 458.095M37.0562 443.967L261.388 443.967M4.6499 458.095L-30.7712 473.537M238.953 458.095L261.388 443.967M238.953 458.095L356.104 458.095M238.953 458.095L214.43 473.537M261.388 443.967L373.554 443.967M356.104 458.095L373.554 443.967M356.104 458.095L473.256 458.095M356.104 458.095L337.031 473.537M373.554 443.967L485.72 443.967M485.72 443.967L473.256 458.095M485.72 443.967L710.052 443.967M582.233 473.537L590.407 458.095M582.233 473.537L459.632 473.537M582.233 473.537L704.834 473.537M582.233 473.537L573.261 490.486M590.407 458.095L473.256 458.095M590.407 458.095L707.559 458.095M473.256 458.095L459.632 473.537M459.632 473.537L337.031 473.537M459.632 473.537L444.68 490.486M704.834 473.537L707.559 458.095M704.834 473.537H704.881L827.435 473.537M704.834 473.537L827.435 473.537M704.834 473.537L690.821 552.955M707.559 458.095L824.71 458.095M707.559 458.095L710.052 443.967M827.435 473.537L824.71 458.095M827.435 473.537L950.036 473.537M827.435 473.537L830.425 490.486M824.71 458.095L941.862 458.095M950.036 473.537L941.862 458.095M950.036 473.537L1072.64 473.537M950.036 473.537L959.008 490.486M941.862 458.095L1059.01 458.095M941.862 458.095L934.384 443.967M1072.64 473.537L1059.01 458.095M1072.64 473.537L1087.59 490.486M1072.64 473.537L1195.24 473.537M1059.01 458.095L1176.17 458.095M1059.01 458.095L1046.55 443.968M841.448 552.955L691.327 552.955H690.821M841.448 552.955L846.013 578.827M841.448 552.955L992.076 552.955M841.448 552.955L837.376 529.881M690.821 552.955L686.256 578.827M690.821 552.955L540.194 552.955M686.256 578.827H687.194L846.013 578.827M686.256 578.827L526.499 578.827M686.256 578.827L681.102 608.037M846.013 578.827L1005.77 578.827M846.013 578.827L851.167 608.037M992.076 552.955L1005.77 578.827M992.076 552.955L1142.7 552.955M992.076 552.955L979.861 529.881M1005.77 578.827L1165.53 578.827M1005.77 578.827L1021.23 608.037M1165.53 578.827L1142.7 552.955M1165.53 578.827L1325.28 578.827M1165.53 578.827L1191.3 608.037M1142.7 552.955L1293.33 552.955M1142.7 552.955L1122.34 529.881M337.031 473.537L316.098 490.486M337.031 473.537L214.43 473.537M857.032 641.277L863.766 679.442M857.032 641.277L851.167 608.037M857.032 641.277L1038.83 641.277M668.503 679.442L863.766 679.442M668.503 679.442H664.662H473.239M668.503 679.442L681.102 608.037M668.503 679.442L661.682 718.103M863.766 679.442L870.588 718.103M863.766 679.442L1059.03 679.442M493.441 641.277L473.239 679.442M493.441 641.277L511.037 608.037M493.441 641.277L311.646 641.277M473.239 679.442H277.975M473.239 679.442L452.774 718.103M540.194 552.955L526.499 578.827M540.194 552.955L552.408 529.88M540.194 552.955L389.567 552.955M526.499 578.827L511.037 608.037M526.499 578.827L366.742 578.827M1021.23 608.037L851.167 608.037M1021.23 608.037L1038.83 641.277M1021.23 608.037L1191.3 608.037M851.167 608.037L681.102 608.037M1038.83 641.277L1059.03 679.442M1038.83 641.277L1220.62 641.277M681.102 608.037H680.694L511.037 608.037M511.037 608.037L340.971 608.037M366.742 578.827L340.971 608.037M366.742 578.827L389.567 552.955M366.742 578.827L206.985 578.827M340.971 608.037L311.646 641.277M340.971 608.037L170.906 608.037M311.646 641.277L277.975 679.442M311.646 641.277L129.851 641.277M277.975 679.442L243.868 718.103M277.975 679.442L82.7115 679.442M243.868 718.103L452.774 718.103M243.868 718.103L193.063 775.688M243.868 718.103L34.9609 718.103M452.774 718.103L422.292 775.688M452.774 718.103L661.682 718.103M422.292 775.688H193.063M422.292 775.688L389.539 837.563M422.292 775.688L649.445 775.688H651.521M193.063 775.688L138.475 837.563M193.063 775.688L-36.1649 775.688M138.475 837.563H389.539M138.475 837.563L72.3918 912.467M138.475 837.563L-112.589 837.563M389.539 837.563L639.065 837.563H640.603M389.539 837.563L349.889 912.467M72.3918 912.467L349.889 912.467M72.3918 912.467H-205.105M640.603 837.563L651.521 775.688M640.603 837.563L891.667 837.563M651.521 775.688L660.581 724.339L661.682 718.103M651.521 775.688L880.749 775.688M661.682 718.103L870.588 718.103M880.749 775.688L870.588 718.103M880.749 775.688L891.667 837.563M880.749 775.688L1109.98 775.688M870.588 718.103H1079.5M891.667 837.563L904.884 912.467M891.667 837.563L1142.73 837.563M904.884 912.467H1182.38M1182.38 912.467L1142.73 837.563M1182.38 912.467H1459.88M1142.73 837.563L1109.98 775.688M1142.73 837.563H1393.79M1109.98 775.688L1079.5 718.103M1109.98 775.688H1339.21M1079.5 718.103L1059.03 679.442M1079.5 718.103L1288.4 718.103M1059.03 679.442H1254.29M1288.4 718.103L1254.29 679.442M1288.4 718.103L1339.21 775.688M1288.4 718.103H1497.31M1254.29 679.442L1449.56 679.442M1254.29 679.442L1220.62 641.277M1339.21 775.688L1393.79 837.563M1339.21 775.688L1568.43 775.689M1393.79 837.563L1459.88 912.467M1393.79 837.563L1644.86 837.564M1568.43 775.689L1497.31 718.103M1568.43 775.689L1644.86 837.564M1497.31 718.103L1449.56 679.442M1449.56 679.442L1402.42 641.277M1402.42 641.277L1220.62 641.277M1402.42 641.277L1361.36 608.037M1402.42 641.277L1584.21 641.277M1220.62 641.277L1191.3 608.037M1325.28 578.827L1293.33 552.955M1325.28 578.827L1361.36 608.037M1325.28 578.827L1485.04 578.827M1293.33 552.955L1264.83 529.881M1293.33 552.955L1443.96 552.955M1216.17 490.486L1087.59 490.486M1216.17 490.486L1239.25 509.173M1216.17 490.486L1195.24 473.537M1216.17 490.486L1344.75 490.486M1087.59 490.486L1104.08 509.173M1087.59 490.486L959.008 490.486M1104.08 509.173L1239.25 509.173M1104.08 509.173L968.9 509.173M1104.08 509.173L1122.34 529.881M1239.25 509.173L1264.83 529.881M1239.25 509.173L1374.43 509.173M1195.24 473.537L1176.17 458.095M1195.24 473.537L1317.84 473.537M1176.17 458.095L1158.72 443.968M1176.17 458.095H1293.32M1158.72 443.968L1046.55 443.968M1158.72 443.968L1383.05 443.968M1046.55 443.968L934.384 443.967M934.384 443.967L710.052 443.967M830.425 490.486L833.722 509.173M830.425 490.486L959.008 490.486M833.722 509.173L968.9 509.173M833.722 509.173L837.376 529.881M968.9 509.173L959.008 490.486M968.9 509.173L979.861 529.881M979.861 529.881L837.376 529.881M979.861 529.881L1122.34 529.881M1122.34 529.881L1264.83 529.881M1191.3 608.037L1361.36 608.037M1361.36 608.037L1531.43 608.037M1264.83 529.881L1407.31 529.881M1443.96 552.955L1407.31 529.881M1443.96 552.955L1485.04 578.827M1443.96 552.955L1594.58 552.955M1407.31 529.881L1374.43 509.173M1407.31 529.881L1549.8 529.881M1485.04 578.827L1531.43 608.037M1531.43 608.037L1584.21 641.277M1374.43 509.173L1344.75 490.486M1374.43 509.173L1509.61 509.173M1344.75 490.486L1317.84 473.537M1344.75 490.486L1473.34 490.486M1293.32 458.095L1317.84 473.537M1293.32 458.095H1410.47M1317.84 473.537L1440.44 473.537M552.408 529.88L563.37 509.173M552.408 529.88L409.924 529.88M573.261 490.486L563.37 509.173M573.261 490.486L444.68 490.486M563.37 509.173L428.193 509.173M444.68 490.486L428.193 509.173M444.68 490.486L316.098 490.486M428.193 509.173L409.924 529.88M428.193 509.173L293.016 509.173M409.924 529.88L389.567 552.955M409.924 529.88L267.44 529.88M389.567 552.955L238.94 552.955M316.098 490.486L293.016 509.173M316.098 490.486L187.516 490.486M293.016 509.173L267.44 529.88M293.016 509.173L157.84 509.173M267.44 529.88L238.94 552.955M267.44 529.88L124.956 529.88M238.94 552.955L206.985 578.827M238.94 552.955L88.3125 552.955M206.985 578.827L170.906 608.037M206.985 578.827L47.2275 578.827M170.906 608.037L129.851 641.277M170.906 608.037L0.840698 608.037M129.851 641.277L82.7115 679.442M129.851 641.277L-51.9453 641.277M82.7115 679.442L34.9609 718.103M82.7115 679.442H-112.553M34.9609 718.103L-36.1649 775.688M34.9609 718.103H-173.946M-36.1649 775.688L-112.589 837.563M-36.1649 775.688L-265.394 775.688M-112.589 837.563L-205.105 912.467M-112.553 679.442L-173.946 718.103M-112.553 679.442L-51.9453 641.277M-173.946 718.103L-265.394 775.688M-51.9453 641.277L0.840698 608.037M-51.9453 641.277L-233.74 641.277M47.2275 578.827L0.840698 608.037M47.2275 578.827L88.3125 552.955M47.2275 578.827L-112.529 578.827M0.840698 608.037L-169.224 608.037M88.3125 552.955L124.956 529.88M88.3125 552.955L-62.3141 552.955M124.956 529.88L157.84 509.173M124.956 529.88L-17.5283 529.88M187.516 490.486L157.84 509.173M187.516 490.486L214.43 473.537M187.516 490.486L58.9341 490.485M157.84 509.173L22.6635 509.173M214.43 473.537L91.8298 473.537M91.8298 473.537L58.9341 490.485M91.8298 473.537L-30.7712 473.537M58.9341 490.485L22.6635 509.173M58.9341 490.485L-69.6481 490.485M22.6635 509.173L-17.5283 529.88M22.6635 509.173L-112.513 509.173M-17.5283 529.88L-62.3141 552.955M-17.5283 529.88L-160.013 529.88M-112.529 578.827L-62.3141 552.955M-112.529 578.827L-169.224 608.037M-62.3141 552.955L-212.941 552.955M-169.224 608.037L-233.74 641.277M-160.013 529.88L-212.941 552.955M-160.013 529.88L-112.513 509.173M-112.513 509.173L-69.6481 490.485M-69.6481 490.485L-30.7712 473.537M1410.47 458.095L1383.05 443.968M1410.47 458.095L1440.44 473.537M1440.44 473.537L1473.34 490.486M1473.34 490.486L1509.61 509.173M1509.61 509.173L1549.8 529.881M1549.8 529.881L1594.58 552.955" stroke="url(#paint0_linear_1_83)" stroke-width="2.76569" stroke-miterlimit="10"/>
</g>
<path d="M723.241 74.9825L708.281 69.9958L685.01 192.17L748.175 161.418L723.241 74.9825Z" fill="#001A5C"/>
<path d="M752.33 6L749.837 32.5957L748.175 161.418L786.406 60.0225L778.926 20.129L752.33 6Z" fill="#001A5C"/>
<path d="M749.837 32.5957L723.241 74.9825L748.175 161.418L749.837 32.5957Z" fill="#001A5C"/>
<path d="M520.449 233.725L527.098 293.566L501.334 360.886L581.952 296.89L520.449 233.725Z" fill="#001A5C"/>
<path d="M404.093 363.379L501.334 431.531V360.886L527.098 293.566L404.093 363.379Z" fill="#001A5C"/>
<path d="M333.448 360.886L281.088 296.89L283.581 338.446L333.448 360.886Z" fill="#001A5C"/>
<path d="M360.875 192.17L321.813 273.619L365.862 288.579L413.235 262.814L360.875 192.17Z" fill="#001A5C"/>
<path d="M365.862 288.579L281.088 296.89L333.448 360.886L365.862 288.579Z" fill="#001A5C"/>
<path d="M321.813 273.619H254.492L281.088 296.89L365.862 288.579L321.813 273.619Z" fill="#001A5C"/>
<path d="M254.492 273.619L181.354 302.708L144.785 389.144L281.088 296.89L254.492 273.619Z" fill="#001A5C"/>
<path d="M281.088 296.89L144.785 389.144L217.092 424.051L234.546 412.415L244.519 370.859L283.581 338.446L281.088 296.89Z" fill="#001A5C"/>
<path d="M283.581 338.446L244.519 370.859L274.439 455.326L326.799 402.442L323.475 397.455L283.581 338.446Z" fill="#001A5C"/>
<path d="M274.439 455.326L234.546 412.415L217.092 424.051L200.47 455.216L274.439 455.326Z" fill="#001A5C"/>
<path d="M144.785 389.144L102.398 455.07L200.47 455.216L217.092 424.051L144.785 389.144Z" fill="#001A5C"/>
<path d="M94.0873 434.855L1.00242 454.92L102.398 455.07L144.785 389.144L94.0873 434.855Z" fill="#001A5C"/>
<path d="M-8.97096 423.22L-28.9177 444.829L-19.7755 454.889L1.00242 454.92L94.0873 434.855L-8.97096 423.22Z" fill="#001A5C"/>
<path d="M-77.9535 454.802L-8.97096 423.22L-50.3605 419.895L-77.9535 454.802Z" fill="#001A5C"/>
<path d="M-8.97096 423.22L-77.9535 454.802L-19.7755 454.889L-28.9177 444.829L-8.97096 423.22Z" fill="#001A5C"/>
<path d="M-8.97096 389.144L-43.4622 411.168L-50.3605 419.895L-8.97096 423.22V389.144Z" fill="#001A5C"/>
<path d="M33.4159 381.664L-8.97096 389.144V423.22L45.8826 395.793L33.4159 381.664Z" fill="#001A5C"/>
<path d="M-8.97096 423.22L94.0873 434.855V378.339L45.8826 395.793L-8.97096 423.22Z" fill="#001A5C"/>
<path d="M50.0382 355.899L33.4159 381.664L45.8826 395.793L67.4916 352.409L50.0382 355.899Z" fill="#001A5C"/>
<path d="M67.4916 352.409L45.8826 395.793L94.0873 378.339L84.945 348.918L67.4916 352.409Z" fill="#001A5C"/>
<path d="M181.354 302.708L116.527 342.602L84.945 348.918L94.0873 378.339L181.354 302.708Z" fill="#001A5C"/>
<path d="M181.354 302.708L94.0873 378.339V434.855L144.785 389.144L181.354 302.708Z" fill="#001A5C"/>
<path d="M326.799 402.442L274.439 455.326L425.702 455.552L404.093 363.379L326.799 402.442Z" fill="#001A5C"/>
<path d="M404.093 363.379L333.448 360.886L283.581 338.446L323.475 397.455L326.799 402.442L404.093 363.379Z" fill="#001A5C"/>
<path d="M413.235 262.814L365.862 288.579L333.448 360.886L404.093 363.379L413.235 262.814Z" fill="#001A5C"/>
<path d="M418.222 225.414L360.875 192.17L413.235 262.814C434.749 246.423 476.15 215.305 482.282 212.274L418.222 225.414Z" fill="#001A5C"/>
<path d="M413.235 262.814L404.093 363.379L483.049 212.116L482.282 212.274C476.15 215.305 434.749 246.423 413.235 262.814Z" fill="#001A5C"/>
<path d="M520.449 233.725L483.049 212.116L404.093 363.379L527.098 293.566L520.449 233.725Z" fill="#001A5C"/>
<path d="M669.219 149.783L630.987 159.756L685.01 192.17L708.281 69.9958L669.219 149.783Z" fill="#001A5C"/>
<path d="M788.068 264.477L744.85 335.121L823.806 455.762L791.393 367.535L788.068 264.477Z" fill="#001A5C"/>
<path d="M846.246 377.508L886.971 362.548L898.606 332.628L852.895 271.957L846.246 377.508Z" fill="#001A5C"/>
<path d="M918.553 312.681L898.606 332.628L999.171 362.548L1033.25 312.681H918.553Z" fill="#001A5C"/>
<path d="M846.246 377.508L918.553 456.285L937.669 456.313L886.971 362.548L846.246 377.508Z" fill="#001A5C"/>
<path d="M1093.92 410.753L1224.4 456.74L1189.4 420.726L1157.08 387.482L1093.92 410.753Z" fill="#001A5C"/>
<path d="M1306.68 345.095L1238.53 316.837L1189.4 420.726L1248.51 402.442L1306.68 345.095Z" fill="#001A5C"/>
<path d="M1238.53 316.837L1213.6 322.655L1200.72 312.266L1187.83 358.393L1238.53 316.837Z" fill="#001A5C"/>
<path d="M933.513 261.983L1033.25 312.681L992.522 232.063L933.513 261.983Z" fill="#001A5C"/>
<path d="M893.62 261.983L852.895 271.957L898.606 332.628L918.553 312.681L893.62 261.983Z" fill="#001A5C"/>
<path d="M881.153 190.507L852.895 271.957L893.62 261.983L881.153 190.507Z" fill="#001A5C"/>
<path d="M581.952 296.89L585.276 371.691L655.921 360.055L719.917 247.854L581.952 296.89Z" fill="#001A5C"/>
<path d="M577.796 209.623L520.449 233.725L581.952 296.89L681.685 218.765L577.796 209.623Z" fill="#001A5C"/>
<path d="M630.987 159.756L577.796 209.623L681.685 218.765L685.01 192.17L630.987 159.756Z" fill="#001A5C"/>
<path d="M685.01 192.17L681.685 218.765L739.864 192.17L748.175 161.418L685.01 192.17Z" fill="#001A5C"/>
<path d="M823.806 133.992L786.406 60.0225L748.175 161.418L818.819 215.441L823.806 133.992Z" fill="#001A5C"/>
<path d="M739.864 192.17L777.264 215.441H818.819L748.175 161.418L739.864 192.17Z" fill="#001A5C"/>
<path d="M719.917 247.854L788.068 264.477L818.819 215.441H777.264L719.917 247.854Z" fill="#001A5C"/>
<path d="M739.864 192.17L681.685 218.765L719.917 247.854L777.264 215.441L739.864 192.17Z" fill="#001A5C"/>
<path d="M717.423 306.032L688.334 362.548L744.85 335.121L788.068 264.477L717.423 306.032Z" fill="#001A5C"/>
<path d="M719.917 247.854L717.423 306.032L788.068 264.477L719.917 247.854Z" fill="#001A5C"/>
<path d="M681.685 218.765L581.952 296.89L719.917 247.854L681.685 218.765Z" fill="#001A5C"/>
<path d="M581.952 296.89L501.334 360.886V431.531L585.276 371.691L581.952 296.89Z" fill="#001A5C"/>
<path d="M585.276 371.691L501.334 431.531L566.992 455.762L632.65 394.962L585.276 371.691Z" fill="#001A5C"/>
<path d="M404.093 363.379L425.702 455.552L566.992 455.762L501.334 431.531L404.093 363.379Z" fill="#001A5C"/>
<path d="M585.276 371.691L632.65 394.962L688.334 362.548L655.921 360.055L585.276 371.691Z" fill="#001A5C"/>
<path d="M632.65 394.962L566.992 455.762L662.57 455.904L688.334 362.548L632.65 394.962Z" fill="#001A5C"/>
<path d="M744.85 335.121L688.334 362.548L662.57 455.904L852.895 456.187L791.393 367.535L823.806 455.762L744.85 335.121Z" fill="#001A5C"/>
<path d="M719.917 247.854L655.921 360.055L688.334 362.548L717.423 306.032L719.917 247.854Z" fill="#001A5C"/>
<path d="M791.393 367.535L852.895 456.187L918.553 456.285L846.246 377.508L791.393 367.535Z" fill="#001A5C"/>
<path d="M791.393 367.535L852.895 271.957L818.819 215.441L788.068 264.477L791.393 367.535Z" fill="#001A5C"/>
<path d="M791.393 367.535L846.246 377.508L852.895 271.957L791.393 367.535Z" fill="#001A5C"/>
<path d="M881.153 190.507L823.806 133.992L818.819 215.441L852.895 271.957L881.153 190.507Z" fill="#001A5C"/>
<path d="M920.215 218.765L881.153 190.507L893.62 261.983H933.513L920.215 218.765Z" fill="#001A5C"/>
<path d="M933.513 261.983L992.522 232.063H945.149L920.215 218.765L933.513 261.983Z" fill="#001A5C"/>
<path d="M960.94 204.636L920.215 218.765L945.149 232.063H992.522L960.94 204.636Z" fill="#001A5C"/>
<path d="M1068.15 268.632L1040.73 275.281L1085.61 322.655L1112.2 301.877L1068.15 268.632Z" fill="#001A5C"/>
<path d="M1187.83 301.877H1153.76L1164.56 330.966L1200.72 312.266L1187.83 301.877Z" fill="#001A5C"/>
<path d="M1112.2 301.877L1133.81 353.406L1164.56 330.966L1153.76 301.877H1112.2Z" fill="#001A5C"/>
<path d="M1040.73 275.281L992.522 232.063L1033.25 312.681L1085.61 322.655L1040.73 275.281Z" fill="#001A5C"/>
<path d="M918.553 312.681H1033.25L933.513 261.983H893.62L918.553 312.681Z" fill="#001A5C"/>
<path d="M898.606 332.628L1008.31 456.418L1025.77 456.444L999.171 362.548L898.606 332.628Z" fill="#001A5C"/>
<path d="M886.971 362.548L937.669 456.313L1008.31 456.418L898.606 332.628L886.971 362.548Z" fill="#001A5C"/>
<path d="M999.171 362.548L1025.77 456.444L1096.41 456.55L1063.17 423.22L999.171 362.548Z" fill="#001A5C"/>
<path d="M1093.92 410.753L1063.17 423.22L1096.41 456.55L1224.4 456.74L1093.92 410.753Z" fill="#001A5C"/>
<path d="M1033.25 312.681L999.171 362.548L1063.17 423.22L1085.61 362.548L1033.25 312.681Z" fill="#001A5C"/>
<path d="M1085.61 322.655L1033.25 312.681L1085.61 362.548L1133.81 353.406L1085.61 322.655Z" fill="#001A5C"/>
<path d="M1133.81 353.406L1085.61 362.548L1063.17 423.22L1093.92 410.753L1133.81 353.406Z" fill="#001A5C"/>
<path d="M1133.81 353.406L1093.92 410.753L1157.08 387.482L1164.56 330.966L1133.81 353.406Z" fill="#001A5C"/>
<path d="M1164.56 330.966L1157.08 387.482L1187.83 358.393L1200.72 312.266L1164.56 330.966Z" fill="#001A5C"/>
<path d="M1112.2 301.877L1085.61 322.655L1133.81 353.406L1112.2 301.877Z" fill="#001A5C"/>
<path d="M1187.83 358.393L1157.08 387.482L1189.4 420.726L1238.53 316.837L1187.83 358.393Z" fill="#001A5C"/>
<path d="M1189.4 420.726L1224.4 456.74L1329.12 456.896L1248.51 402.442L1189.4 420.726Z" fill="#001A5C"/>
<path d="M274.439 455.326L244.519 370.859L234.546 412.415L274.439 455.326Z" fill="#001A5C"/>
<g filter="url(#filter1_di_1_83)">
<path d="M1364.86 318.499L1306.68 346.757V369.197L1349.07 378.339L1364.86 318.499Z" fill="#001A5C"/>
<path d="M1306.68 346.757L1248.51 404.104L1306.68 369.197V346.757Z" fill="#001A5C"/>
<path d="M1306.68 369.197L1248.51 404.104L1329.12 458.558L1349.07 378.339L1306.68 369.197Z" fill="#001A5C"/>
<path d="M1349.07 378.339L1329.12 458.558L1461.89 458.756L1416.39 415.74L1349.07 378.339Z" fill="#001A5C"/>
<path d="M1364.86 318.499L1349.07 378.339L1416.39 415.74L1447.14 378.339L1364.86 318.499Z" fill="#001A5C"/>
<path d="M1447.14 378.339L1416.39 415.74L1461.89 458.756L1462.04 458.756L1447.14 413.246V378.339Z" fill="#001A5C"/>
<path d="M1597.57 458.958L1592.59 434.024L1447.14 378.339V413.246L1535.24 434.024L1570.15 440.673L1597.57 458.958Z" fill="#001A5C"/>
<path d="M1456.28 355.899L1364.86 318.499L1447.14 378.339L1592.59 434.024L1456.28 355.899Z" fill="#001A5C"/>
<path d="M1546.04 458.881L1597.57 458.958L1570.15 440.673L1535.24 434.024L1546.04 458.881Z" fill="#001A5C"/>
<path d="M1535.24 434.024L1447.14 413.246L1462.04 458.756L1546.04 458.881L1535.24 434.024Z" fill="#001A5C"/>
<path d="M-77.9535 456.464V434.855L-43.4622 412.831M-77.9535 456.464L-8.97093 424.882M-77.9535 456.464L-50.3604 421.557M-77.9535 456.464L-19.7754 456.551M-8.97093 390.806L33.4159 383.326M-8.97093 390.806L-43.4622 412.831M-8.97093 390.806V424.882M33.4159 383.326L50.0382 357.562L67.4916 354.071M33.4159 383.326L45.8827 397.455M181.354 304.37L116.527 344.264L84.9451 350.58M181.354 304.37L254.492 275.281M181.354 304.37L94.0873 380.002M181.354 304.37L144.785 390.806M254.492 275.281H321.813M254.492 275.281L281.088 298.552M321.813 275.281L360.875 193.832M321.813 275.281L365.862 290.241M360.875 193.832L418.222 227.077L482.282 213.936M360.875 193.832L413.235 264.477M483.049 213.779L520.449 235.388M483.049 213.779L404.093 365.042M483.049 213.779C483.049 213.628 482.783 213.688 482.282 213.936M483.049 213.779L482.282 213.936M520.449 235.388L577.796 211.285M520.449 235.388L527.098 295.228M520.449 235.388L581.952 298.552M577.796 211.285L630.988 161.418M577.796 211.285L681.686 220.428M630.988 161.418L669.219 151.445L708.281 71.6581M630.988 161.418L685.01 193.832M708.281 71.6581L723.241 76.6448M708.281 71.6581L685.01 193.832M723.241 76.6448L749.837 34.2579M723.241 76.6448L748.175 163.081M749.837 34.2579L752.33 7.66223L778.926 21.7912L786.406 61.6847M749.837 34.2579L748.175 163.081M786.406 61.6847L823.806 135.654M786.406 61.6847L748.175 163.081M823.806 135.654L881.153 192.17M823.806 135.654L818.819 217.103M881.153 192.17L920.215 220.428M881.153 192.17L852.895 273.619M881.153 192.17L893.62 263.646M920.215 220.428L960.94 206.299L992.522 233.725M920.215 220.428L933.513 263.646M920.215 220.428L945.149 233.725H992.522M992.522 233.725L1040.73 276.943M992.522 233.725L933.513 263.646M992.522 233.725L1033.25 314.344M1040.73 276.943L1068.15 270.295L1112.2 303.539M1040.73 276.943L1085.61 324.317M1112.2 303.539L1085.61 324.317M1112.2 303.539L1133.81 355.068M1112.2 303.539H1153.76M1238.53 318.499L1213.6 324.317L1200.72 313.928M1238.53 318.499L1306.68 346.757M1238.53 318.499L1187.83 360.055M1238.53 318.499L1189.4 422.389M1306.68 346.757L1364.86 318.499M1306.68 346.757L1248.51 404.104M1306.68 346.757V369.197M1364.86 318.499L1456.28 355.899L1592.59 434.024M1364.86 318.499L1349.07 378.339M1364.86 318.499L1447.14 378.339M1592.59 434.024L1597.57 458.958M1592.59 434.024L1447.14 378.339M1597.57 458.958L1546.04 458.881M1597.57 458.958L1570.15 440.673L1535.24 434.024M-43.4622 412.831L-50.3604 421.557M-8.97093 424.882L-50.3604 421.557M-8.97093 424.882L-28.9177 446.491L-19.7754 456.551M-8.97093 424.882L94.0873 436.517M-8.97093 424.882L45.8827 397.455M-19.7754 456.551L1.00245 456.582M1.00245 456.582L94.0873 436.517M1.00245 456.582L102.398 456.733M94.0873 436.517L144.785 390.806M94.0873 436.517V380.002M45.8827 397.455L67.4916 354.071M45.8827 397.455L94.0873 380.002M67.4916 354.071L84.9451 350.58M94.0873 380.002L84.9451 350.58M144.785 390.806L102.398 456.733M144.785 390.806L281.088 298.552M144.785 390.806L217.092 425.713M102.398 456.733L200.47 456.879M281.088 298.552L365.862 290.241M281.088 298.552L333.448 362.548M281.088 298.552L283.581 340.108M365.862 290.241L413.235 264.477M365.862 290.241L333.448 362.548M413.235 264.477L404.093 365.042M413.235 264.477C434.749 248.086 476.15 216.968 482.282 213.936M404.093 365.042L333.448 362.548M404.093 365.042L326.799 404.104M404.093 365.042L425.702 457.214M404.093 365.042L501.334 433.193M404.093 365.042L527.098 295.228M333.448 362.548L283.581 340.108M283.581 340.108L244.519 372.522M283.581 340.108L323.475 399.117L326.799 404.104M244.519 372.522L274.439 456.989M244.519 372.522L234.546 414.077M326.799 404.104L274.439 456.989M326.799 404.104L355.888 457.11M274.439 456.989L234.546 414.077M274.439 456.989L200.47 456.879M274.439 456.989L355.888 457.11M234.546 414.077L217.092 425.713M217.092 425.713L200.47 456.879M425.702 457.214L475.569 457.526M425.702 457.214L355.888 457.11M501.334 433.193V362.548M501.334 433.193L585.276 373.353M501.334 433.193L585.276 458.212M501.334 433.193L475.569 457.526M527.098 295.228L501.334 362.548M581.952 298.552L501.334 362.548M581.952 298.552L585.276 373.353M581.952 298.552L681.686 220.428M581.952 298.552L719.917 249.517M585.276 373.353L632.65 396.624M585.276 373.353L655.921 361.717M585.276 458.212L632.65 396.624M585.276 458.212H708.281M585.276 458.212L475.569 457.526M632.65 396.624L688.334 364.21M681.686 220.428L685.01 193.832M681.686 220.428L739.864 193.832M681.686 220.428L719.917 249.517M685.01 193.832L748.175 163.081M739.864 193.832L777.264 217.103M739.864 193.832L748.175 163.081M719.917 249.517L655.921 361.717M719.917 249.517L717.423 307.695M719.917 249.517L788.068 266.139M719.917 249.517L777.264 217.103M655.921 361.717L688.334 364.21M688.334 364.21L717.423 307.695M688.334 364.21L744.85 336.784M688.334 364.21L708.281 458.212M717.423 307.695L788.068 266.139M788.068 266.139L744.85 336.784M788.068 266.139L818.819 217.103M788.068 266.139L791.393 369.197M744.85 336.784L823.806 455.633L791.393 369.197M708.281 458.212L852.895 457.849M791.393 369.197L852.895 457.849M791.393 369.197L846.246 379.171M791.393 369.197L852.895 273.619M852.895 457.849L918.553 457.947M846.246 379.171L918.553 457.947M846.246 379.171L886.971 364.21M846.246 379.171L852.895 273.619M918.553 457.947L939.331 457.849M939.331 457.849L886.971 364.21M939.331 457.849L1008.31 458.081M886.971 364.21L898.606 334.29M852.895 273.619L893.62 263.646M852.895 273.619L898.606 334.29M852.895 273.619L818.819 217.103M893.62 263.646L918.553 314.344M893.62 263.646H933.513M898.606 334.29L918.553 314.344M898.606 334.29L1008.31 458.081M898.606 334.29L999.171 364.21M918.553 314.344H1033.25M1008.31 458.081L1063.17 458.402M999.171 364.21L1063.17 458.402M999.171 364.21L1033.25 314.344M999.171 364.21L1063.17 424.882M1063.17 458.402L1096.41 458.212M1033.25 314.344L933.513 263.646M1033.25 314.344L1085.61 324.317M1033.25 314.344L1085.61 364.21M1085.61 324.317L1133.81 355.068M1133.81 355.068L1085.61 364.21M1133.81 355.068L1093.92 412.415M1133.81 355.068L1164.56 332.628M1085.61 364.21L1063.17 424.882M1093.92 412.415L1063.17 424.882M1093.92 412.415L1224.4 458.402M1093.92 412.415L1157.08 389.144M1063.17 424.882L1096.41 458.212M1096.41 458.212L1224.4 458.402M1224.4 458.402L1189.4 422.389M1224.4 458.402L1329.12 458.558M1157.08 389.144L1164.56 332.628M1157.08 389.144L1187.83 360.055M1157.08 389.144L1189.4 422.389M1164.56 332.628L1153.76 303.539M1164.56 332.628L1200.72 313.928M1153.76 303.539H1187.83L1200.72 313.928M1200.72 313.928L1187.83 360.055M1189.4 422.389L1248.51 404.104M1248.51 404.104L1306.68 369.197M1248.51 404.104L1329.12 458.558M1306.68 369.197L1349.07 378.339M1329.12 458.558L1349.07 378.339M1329.12 458.558L1461.89 458.756M1349.07 378.339L1416.39 415.74M1416.39 415.74L1447.14 378.339M1416.39 415.74L1461.89 458.756M1447.14 378.339V413.246M1535.24 434.024L1447.14 413.246M1535.24 434.024L1546.04 458.881M1447.14 413.246L1462.04 458.756M1546.04 458.881L1462.04 458.756M777.264 217.103H818.819M818.819 217.103L748.175 163.081M1461.89 458.756L1462.1 458.958L1462.04 458.756M1461.89 458.756L1462.04 458.756" stroke="url(#paint1_linear_1_83)" stroke-width="2.76569" stroke-miterlimit="10"/>
</g>
<defs>
<filter id="filter0_di_1_83" x="-1565.1" y="436.983" width="4352.38" height="573.92" filterUnits="userSpaceOnUse" color-interpolation-filters="sRGB">
<feFlood flood-opacity="0" result="BackgroundImageFix"/>
<feColorMatrix in="SourceAlpha" type="matrix" values="0 0 0 0 0 0 0 0 0 0 0 0 0 0 0 0 0 0 127 0" result="hardAlpha"/>
<feOffset/>
<feGaussianBlur stdDeviation="2.30474"/>
<feColorMatrix type="matrix" values="0 0 0 0 0.8505 0 0 0 0 0.425 0 0 0 0 1 0 0 0 0.67 0"/>
<feBlend mode="normal" in2="BackgroundImageFix" result="effect1_dropShadow_1_83"/>
<feBlend mode="normal" in="SourceGraphic" in2="effect1_dropShadow_1_83" result="shape"/>
<feColorMatrix in="SourceAlpha" type="matrix" values="0 0 0 0 0 0 0 0 0 0 0 0 0 0 0 0 0 0 127 0" result="hardAlpha"/>
<feOffset/>
<feGaussianBlur stdDeviation="1.84379"/>
<feComposite in2="hardAlpha" operator="arithmetic" k2="-1" k3="1"/>
<feColorMatrix type="matrix" values="0 0 0 0 1 0 0 0 0 0.6875 0 0 0 0 0.9875 0 0 0 0.58 0"/>
<feBlend mode="normal" in2="shape" result="effect2_innerShadow_1_83"/>
</filter>
<filter id="filter1_di_1_83" x="-83.9458" y="0.858317" width="1687.82" height="470.227" filterUnits="userSpaceOnUse" color-interpolation-filters="sRGB">
<feFlood flood-opacity="0" result="BackgroundImageFix"/>
<feColorMatrix in="SourceAlpha" type="matrix" values="0 0 0 0 0 0 0 0 0 0 0 0 0 0 0 0 0 0 127 0" result="hardAlpha"/>
<feOffset/>
<feGaussianBlur stdDeviation="2.30474"/>
<feColorMatrix type="matrix" values="0 0 0 0 0.8505 0 0 0 0 0.425 0 0 0 0 1 0 0 0 0.67 0"/>
<feBlend mode="normal" in2="BackgroundImageFix" result="effect1_dropShadow_1_83"/>
<feBlend mode="normal" in="SourceGraphic" in2="effect1_dropShadow_1_83" result="shape"/>
<feColorMatrix in="SourceAlpha" type="matrix" values="0 0 0 0 0 0 0 0 0 0 0 0 0 0 0 0 0 0 127 0" result="hardAlpha"/>
<feOffset/>
<feGaussianBlur stdDeviation="1.84379"/>
<feComposite in2="hardAlpha" operator="arithmetic" k2="-1" k3="1"/>
<feColorMatrix type="matrix" values="0 0 0 0 1 0 0 0 0 0.6875 0 0 0 0 0.9875 0 0 0 0.58 0"/>
<feBlend mode="normal" in2="shape" result="effect2_innerShadow_1_83"/>
</filter>
<linearGradient id="paint0_linear_1_83" x1="682.051" y1="262.168" x2="682.051" y2="724.038" gradientUnits="userSpaceOnUse">
<stop stop-color="white"/>
<stop offset="1" stop-color="#EABEFF"/>
</linearGradient>
<linearGradient id="paint1_linear_1_83" x1="787.204" y1="-137.4" x2="787.204" y2="233.397" gradientUnits="userSpaceOnUse">
<stop stop-color="white"/>
<stop offset="1" stop-color="#EABEFF"/>
</linearGradient>
</defs>
</svg>
