<svg width="58" height="59" viewBox="0 0 58 59" fill="none" xmlns="http://www.w3.org/2000/svg">
<path d="M55.8479 4.33054C55.455 4.14291 55.0184 4.06561 54.585 4.10689C54.1515 4.14817 53.7374 4.30649 53.387 4.56491C45.0959 10.7758 38.0647 7.78757 29.9495 4.30124C21.8342 0.814912 12.2834 -3.28665 1.82446 4.56491H1.79517L1.67798 4.6528L1.61938 4.7114L1.53149 4.79929L1.4436 4.88718L1.38501 4.97507L1.29712 5.06296C1.29712 5.09226 1.26782 5.12155 1.23853 5.15085L1.17993 5.26804C1.17993 5.29733 1.15064 5.32663 1.15064 5.35593C1.12036 5.38863 1.10004 5.42928 1.09204 5.47311C1.06274 5.50241 1.06274 5.53171 1.03345 5.5903C1.00415 5.6489 1.00415 5.6489 1.00415 5.67819C1.00415 5.70749 0.974853 5.76608 0.974853 5.79538C0.974853 5.82468 0.945557 5.85397 0.945557 5.88327C0.945557 5.91257 0.916259 5.97116 0.916259 6.00046V6.14694C0.916259 6.17624 0.886963 6.23483 0.886963 6.26413V24.5307V42.7973V55.6587C0.886963 56.2803 1.13389 56.8764 1.57343 57.3159C2.01297 57.7555 2.60911 58.0024 3.23071 58.0024C3.85231 58.0024 4.44846 57.7555 4.88799 57.3159C5.32753 56.8764 5.57446 56.2803 5.57446 55.6587V42.7973C13.4553 37.4946 20.2522 40.395 28.0745 43.7641C32.8499 45.7856 37.9768 47.9829 43.4846 47.9829C47.5276 47.9829 51.7756 46.811 56.1995 43.4712C56.4889 43.2513 56.7239 42.9679 56.8865 42.6428C57.049 42.3177 57.1347 41.9596 57.137 41.5962V6.43991C57.1334 6.0045 57.0116 5.57823 56.7846 5.20669C56.5575 4.83515 56.2338 4.53231 55.8479 4.33054Z" fill="#0DBE51"/>
</svg>
