<?xml version="1.0" standalone="no"?>
<!DOCTYPE svg PUBLIC "-//W3C//DTD SVG 20010904//EN"
 "http://www.w3.org/TR/2001/REC-SVG-20010904/DTD/svg10.dtd">
<svg version="1.0" xmlns="http://www.w3.org/2000/svg"
 width="333.000000pt" height="333.000000pt" viewBox="0 0 333.000000 333.000000"
 preserveAspectRatio="xMidYMid meet">
<metadata>
Created by potrace 1.14, written by Peter Selinger 2001-2017
</metadata>
<g transform="translate(0.000000,333.000000) scale(0.100000,-0.100000)"
fill="#000000" stroke="none">
<path d="M1520 3318 c-248 -28 -484 -106 -675 -221 -158 -95 -348 -261 -455
-397 -185 -233 -313 -545 -346 -840 -17 -154 -7 -397 21 -500 2 -8 7 -30 10
-49 3 -19 24 -89 45 -155 119 -364 382 -698 708 -899 137 -84 353 -178 465
-201 311 -65 518 -67 777 -10 625 139 1117 639 1186 1205 9 74 11 199 3 244
-4 22 -9 56 -12 75 -41 288 -241 594 -504 772 -259 174 -634 252 -950 196
-337 -59 -555 -226 -641 -488 -29 -88 -33 -111 -37 -209 -9 -233 129 -410 363
-465 103 -24 283 -7 377 36 28 13 31 25 12 53 -8 11 -31 51 -51 89 l-38 68 63
-6 c35 -3 82 -8 104 -11 22 -3 81 -10 130 -15 50 -6 104 -13 120 -15 17 -2 55
-7 85 -10 56 -6 106 -12 170 -20 56 -7 143 -17 165 -19 12 -1 19 -8 17 -16 -1
-8 -38 -103 -82 -210 -43 -107 -111 -274 -150 -370 -39 -96 -74 -184 -79 -195
-6 -16 -13 -10 -46 45 -21 36 -51 90 -68 120 -16 30 -31 57 -33 58 -1 2 -42
-12 -91 -32 -163 -65 -246 -80 -438 -81 -147 0 -182 3 -255 23 -171 47 -315
124 -435 234 -337 307 -399 858 -142 1258 23 36 44 67 47 70 3 3 16 19 29 35
43 57 128 142 197 197 402 322 991 385 1479 157 175 -81 372 -228 485 -361 34
-40 72 -84 84 -98 25 -29 75 -108 105 -165 19 -36 20 -37 14 -10 -9 44 -66
180 -108 260 -125 239 -326 461 -554 615 -110 74 -381 192 -491 214 -14 3 -56
12 -95 20 -141 30 -347 40 -485 24z"/>
</g>
</svg>
