<svg width="57" height="59" viewBox="0 0 57 59" fill="none" xmlns="http://www.w3.org/2000/svg">
<path d="M55.3359 4.95322C54.943 4.76559 54.5065 4.68829 54.073 4.72957C53.6395 4.77085 53.2254 4.92917 52.875 5.18759C44.584 11.3985 37.5527 8.41025 29.4375 4.92392C21.3223 1.43759 11.7715 -2.66397 1.3125 5.18759C1.02142 5.40591 0.785157 5.68899 0.622436 6.01444C0.459715 6.33988 0.375 6.69874 0.375 7.06259V56.2813C0.375 56.9029 0.621931 57.4991 1.06147 57.9386C1.50101 58.3782 2.09715 58.6251 2.71875 58.6251C3.34035 58.6251 3.93649 58.3782 4.37603 57.9386C4.81557 57.4991 5.0625 56.9029 5.0625 56.2813V43.42C12.9434 38.1173 19.7402 41.0177 27.5625 44.3868C32.3379 46.4083 37.4648 48.6056 42.9727 48.6056C47.0156 48.6056 51.2637 47.4337 55.6875 44.0938C55.9769 43.874 56.212 43.5906 56.3745 43.2655C56.5371 42.9404 56.6228 42.5823 56.625 42.2188V7.06259C56.6215 6.62718 56.4997 6.20091 56.2726 5.82937C56.0456 5.45783 55.7218 5.15499 55.3359 4.95322ZM36.7031 42.8927V27.2188C31.166 25.6368 25.834 22.5606 20.2969 20.9786V36.6817C15.5215 35.4513 10.4531 35.2755 5.0625 38.0001V22.5313C10.4238 19.4259 15.4336 19.6017 20.2969 20.9786V6.38876C22.7688 7.20268 25.1943 8.15137 27.5625 9.23056C30.4922 10.461 33.5391 11.7794 36.7031 12.5997V27.2188C41.5664 28.5958 46.5762 28.7716 51.9375 25.6661V41.0177C46.5762 44.6212 41.7129 44.4454 36.7031 42.8927Z" fill="white"/>
</svg>
