<svg xmlns="http://www.w3.org/2000/svg" enable-background="new 0 0 500 421" viewBox="0 0 500 421"><path fill="#ffbe55" d="M483.047,329.465c0,33.169-104.021,60.059-232.349,60.059
			c-128.313,0-232.334-26.89-232.334-60.059c0-0.543,0.031-1.085,0.097-1.627c3.026-29.536,88.557-53.763,199.194-57.829
			c1.563-0.064,3.126-0.111,4.704-0.159c0.047,0.159,0.112,0.319,0.159,0.478c0.638,1.865,1.323,3.635,1.977,5.07
			c0.859,1.912,1.722,3.235,2.453,3.426c1.373,0.35,14.283-0.159,23.065-0.749c8.782,0.59,21.693,1.083,23.047,0.733
			c0.75-0.191,1.594-1.515,2.456-3.428c0.669-1.466,1.37-3.283,2.024-5.18c0.05-0.128,0.097-0.271,0.128-0.398
			c1.563,0.048,3.11,0.096,4.654,0.16c107.847,3.793,192.167,26.714,200.106,55.102
			C482.841,326.515,483.047,327.981,483.047,329.465z" opacity=".9"/><g opacity=".3"><path fill="#ffbe55" d="M237.314 185.745c4.209-.989 6.998-2.55 8.368-3.873 1.357-1.325-3.222-12.338-4.576-14.744-1.339-2.407-2.92-7.668-4.832-12.272-.205-.493-.445-.909-.704-1.308-.237-.59-.557-1.083-1.002-1.434-.638-.495-1.501-.909-2.488-1.292-1.118-7.699-5.809-34.603-16.839-34.983 0 0-.016 0-.031 0-3.235-.606-6.183.048-6.183.048s-4.162 1.307-5.931 6.745c-4.589 6.997-5.846 17.868-5.429 25.151.909-.143 3.3-.461 5.85.033h.016c10.999.426 15.641 27.286 16.758 35.016.99.366 1.849.795 2.488 1.29.429.335.75.812.987 1.402.271.398.51.845.719 1.339 1.915 4.606 3.477 9.867 4.816 12.274 1.339 2.42 5.899 13.435 4.545 14.743-1.354 1.323-4.159 2.9-8.353 3.874-2.039.478-5.878 1.754-9.402 2.982-.19 2.279-.174 4.606.24 5.292.495.828 3.11 4.798 4.944 7.585 2.245 1.244 3.923 2.629 4.352 4.113.51 1.704 1.13 3.745 1.865 6.169h.016c2.662-.162 5.339-.321 8.032-.464.878-.048 1.771-.081 2.662-.129 1.192-18.299-2.042-30.809-4.819-37.887.638-.318 1.195-.654 1.61-1.02 0 0-6.043-9.069-6.824-10.359-.414-.685-.414-2.997-.224-5.292C231.452 187.516 235.29 186.224 237.314 185.745zM232.467 172.277c1.118 2.519 2.232 5.356 2.232 5.356-2.547.892-3.599 1.387-4.492 1.849C230.907 177.266 231.735 174.604 232.467 172.277zM187.634 187.142c-.94 1.29-1.563 2.774-1.961 4.256-.495 1.737-.701 3.443-.794 4.751-.096-.048-.193-.112-.305-.16-.349-.335-.812-.542-1.307-.605-.016 0-.031-.016-.047-.016-6.538-2.931-15.367-4.858-15.796-4.955-.685-1.977-.641-4.304-.514-5.801 0 0 0 0 0-.016 1.485-1.77 2.824-4.544 3.536-8.879.24.159.417-.24.417-.24.128-.43 1.943-5.596 1.544-6.791-.209-.654-.623-.605-.974-.413.305-1.865.654-4.306.766-6.139.143-2.598-1.451-4.492-3.014-5.72-.685-.542-1.737-1.753-2.839-2.836-.031-.383-.097-.781-.159-1.213-1.292-1.801-2.488-4.575-3.191-8.845-.016.016-.016.048-.016.048-.271.255-.461-.223-.461-.223-.081-.191-1.834-5.627-1.42-6.822.302-.845.924-.478 1.258-.207 0-.207.016-.511.031-.861-.159-1.992-.445-3.857-.956-4.161-4.816-2.853-1.628-13.198 13.53-11.782 1.737.174 4.592 3.887 5.98 4.972 1.544 1.227 3.154 3.124 3.014 5.722-.112 1.849-.464 4.271-.766 6.152.336-.19.766-.271.987.398.402 1.195-1.417 6.36-1.544 6.791 0 0-.174.398-.414.223-.716 4.352-2.055 7.142-3.537 8.912-.124 1.482-.159 3.826.545 5.819.143.031 4.334.939 9.1 2.434C184.667 171.586 185.495 185.134 187.634 187.142zM153.84 190.814c0 0 0 .048 0 .128-2.372.685-5.308 1.563-8.206 2.489.128-1.563.143-2.519 0-2.519h-.479c.557-.909 2.391-3.062 2.836-5.421.015-.048.031-.079.015-.128h.016c0 0 1.802-3.921 2.727-5.482.94-1.547.14-1.754-.208-1.77-.448 0-2.646 3.793-3.571 5.404-.031-.031-.062-.047-.093-.065.844-2.087 3.088-7.699 3.281-8.241.271-.669-.51-1.132-.94-.908-.398.223-3.235 6.09-4.24 8.225l-.062-.016c.909-2.279 3.505-8.848 3.536-9.198.062-.447-.862-.733-1.118-.462-.364.385-3.536 7.062-4.523 9.151-.047 0-.097 0-.143-.017.224-.908.623-2.614.987-4.176.383-1.561.716-2.979.797-3.298.174-.797-.286-.973-.925-.574-.576.367-2.469 7.237-2.836 8.544 0 .016-.016.031-.016.031-.511 1.244-.813 4.288-1.404 3.683-.685-.687-3.203-4.382-4.206-3.983-1.006.398 1.033 2.501 1.416 3.298.271.59 1.245 2.439 2.329 3.426.464.43.336 1.227.05 1.993-1.164.001-2.008.001-2.008.001s-.178 1.308-.464 3.252c-1.594-.414-3.25-.749-4.654-1.004 1.865-1.53 3.045-3.811 3.06-6.36 0-3.428-2.139-6.36-5.18-7.665 1.908-4.576 4.091-12.643-1.697-17.344.271-.11.542-.222.813-.317 0 0 .367-.288 1.102-.605-.016-.255-.034-.511-.065-.766-.062-.828-.128-1.625-.19-2.343l-.016-.017c-2.631.112-5.149-1.96-6.89-7.475-1.578-5.003-1.946-8.908-1.659-11.953-2.073-4.24 5.641-15.734 16.861-9.599 8.004 4.382 5.582 13.58 3.512 18.568 3.06 1.29 5.196 4.223 5.199 7.651 0 2.534-1.195 4.814-3.06 6.345 1.579.286 3.474.669 5.246 1.161.255.288.557.526.909.733.508.304.782 2.12.956 4.097v.048c-.016.366-.031.654-.031.876-.336-.271-.959-.638-1.261.207-.414 1.196 1.326 6.631 1.404 6.823 0 0 .193.478.464.223 0 0 .016-.015.016-.031.685 4.223 1.865 6.997 3.157 8.798 0 0 0 0 0 .016C155.26 189.985 153.84 190.814 153.84 190.814zM118.026 192.734c-.526.24-.847.447-.99.542-.062.048-.093.064-.093.064-1.609.606-3.477 1.309-4.318 1.468-.065.016-.128.033-.209.079-.844.303-4.175 1.627-6.183 4.383-1.052 1.437-1.69 3.126-2.104 4.768-.859 0-1.799.048-2.805.143-1.722.16-3.396.797-4.782 1.883-.542.414-1.083.908-1.547 1.498l-9.85.081c-.588-1.911-.542-4.111-.414-5.531 0 0 0 0 0-.016 1.482-1.77 2.821-4.542 3.536-8.879.24.191.414-.238.414-.238.143-.431 1.961-5.597 1.56-6.793-.224-.652-.654-.588-.987-.414.302-1.865.67-4.304.763-6.136.159-2.598-1.451-4.494-2.998-5.72-.813-.638-1.737-1.116-2.708-1.435-.047-.702-.128-1.53-.274-2.486-1.289-1.803-2.484-4.592-3.188-8.848-.016.019-.016.034-.016.05-.271.255-.464-.223-.464-.223-.078-.207-1.831-5.627-1.401-6.823.19-.542.507-.574.797-.462-.289-2.056-.545-4.144-.479-4.766.159-1.785-.448-10.121 14.71-8.69 1.737.16 3.412.797 4.797 1.88 1.547 1.211 3.157 3.108 3.013 5.722-.112 1.849-.461 4.271-.763 6.153.336-.209.766-.271.987.398.398 1.195-1.417 6.343-1.544 6.79 0 0-.177.383-.414.223-.716 4.352-2.055 7.142-3.537 8.911-.112 1.42-.143 3.619.464 5.548l12.415-.131c.255 1.897.735 4.033 1.485 6.407 1.722 5.515 4.225 7.602 6.871 7.475v.016c.062.718.143 1.514.205 2.344C117.995 192.223 118.011 192.478 118.026 192.734zM35.972 197.084l-10.507.065c0 0 1.56-10.951 5.638-19.685C31.567 180.524 34.057 190.263 35.972 197.084zM71.677 208.332c0 0 0 .031 0 .111-5.23 1.515-13.15 3.923-17.421 5.758-1.899-3.857-4.081-8.48-6.6-14.009.031.016.047.033.047.033 1.61.62 3.474 1.322 4.302 1.48 0 0 1.482.478 3.175 1.546.109-.271.205-.557.318-.828-2.073-1.004-5.087-2.344-8.387-3.442-.604-1.323-1.211-2.695-1.846-4.128-.881-1.929-5.457-19.35-5.457-19.35s-.828.096-1.977.224c-.383-.718-.604-1.483-.19-1.977.956-1.116 1.703-3.06 1.893-3.681.208-.655 1.357-2.218 1.342-2.999.542-.143 1.114-.223 1.687-.238.015 0 .015 0 .031 0 3.238-.59 6.201.062 6.201.062s3.714 1.163 5.613 5.898c3.714 5.034 5.342 12.415 5.679 18.758 2.214-4.782 4.222-8.304 5.479-8.863.576-.271 1.245-.543 1.977-.83.081.94.255 2.279.433 3.586-.29-.112-.623-.064-.816.478-.411 1.195 1.326 6.631 1.404 6.823 0 0 .193.478.464.222 0 0 .016-.015.016-.031.704 4.256 1.899 7.03 3.172 8.831C73.078 207.501 71.677 208.332 71.677 208.332z"/></g><path fill="#0b4870" d="M218.759,257.541c0,0-0.844,9.15-1.591,18.267c2.136-0.128,4.287-0.257,6.441-0.367
			c0.286-0.017,0.573-0.033,0.875-0.048C221.711,269.366,218.759,257.541,218.759,257.541z M48.316,252.105
			c0.146-0.064,0.305-0.079,0.448,0c0-1.259,0-2.534,0.016-3.811C48.699,249.252,48.509,250.685,48.316,252.105z"/><path fill="#ffbe55" d="M229.301 199.137c-1.339-2.406-2.902-7.668-4.816-12.274-.209-.493-.448-.94-.719-1.339-.237-.59-.557-1.068-.987-1.402-.638-.495-1.498-.925-2.488-1.29-1.117-7.73-5.759-34.589-16.758-35.016h-.016c-2.55-.493-4.941-.176-5.85-.033-.255.048-.383.081-.383.081s-4.159 1.292-5.927 6.728c-1.242 1.88-2.232 4.049-3.014 6.343h-.016c-3.661 10.65-2.833 24.199-.694 26.207-.94 1.29-1.563 2.774-1.961 4.256 2.438-2.12 6.678-3.588 13.038-2.968 1.737.16 4.592 3.89 5.962 4.972 1.563 1.228 3.157 3.124 3.014 5.724-.112 1.848-.461 4.287-.778 6.152.352-.192.782-.271.987.398.398 1.195-1.417 6.36-1.544 6.79 0 0-.19.398-.414.224-.732 4.351-2.07 7.142-3.552 8.912-.128 1.482-.159 3.826.526 5.801.255.064 11.796 2.548 18.365 6.212-1.834-2.788-4.449-6.757-4.944-7.585-.414-.687-.43-3.014-.24-5.292 3.524-1.228 7.363-2.505 9.402-2.982 4.193-.974 6.998-2.551 8.353-3.874C235.2 212.572 230.639 201.558 229.301 199.137zM218.386 211.476c.701-2.201 1.544-4.863 2.26-7.19 1.118 2.501 2.232 5.339 2.232 5.339C220.328 210.519 219.276 211.03 218.386 211.476zM189.33 227.802c0 0 0 .064 0 .128-5.451 1.58-13.835 4.131-17.932 5.982-.302.143-.623.447-1.021.876-.221-.588-.557-1.083-1.002-1.434-2.058-1.594-6.519-2.501-9.645-3.091 1.865-1.53 3.06-3.793 3.06-6.343 0-3.427-2.139-6.36-5.199-7.651 2.089-4.99 4.523-14.171-3.477-18.569-3.269-1.801-6.233-2.089-8.751-1.497.112-1.051.206-1.993.271-2.772 2.898-.926 5.834-1.804 8.206-2.489 0-.079 0-.128 0-.128s1.42-.83.542-6.567c0-.016 0-.016 0-.016-1.292-1.801-2.472-4.575-3.157-8.798 0 .016-.016.031-.016.031-.271.255-.464-.223-.464-.223-.078-.191-1.818-5.627-1.404-6.823.302-.845.925-.478 1.261-.207 0-.222.016-.511.031-.876v-.048c-.174-1.977-.448-3.793-.956-4.097-.352-.207-.654-.445-.909-.733-3.381-3.552.38-12.369 14.455-11.018.859.081 2.008 1.052 3.122 2.137 1.102 1.083 2.154 2.294 2.839 2.836 1.563 1.228 3.157 3.123 3.014 5.72-.112 1.834-.461 4.274-.766 6.139.352-.193.766-.241.974.413.398 1.195-1.417 6.362-1.544 6.791 0 0-.178.398-.417.24-.713 4.335-2.052 7.109-3.536 8.879 0 .016 0 .016 0 .016-.128 1.497-.171 3.824.514 5.801.43.096 9.259 2.023 15.796 4.955-.414 1.96.302 3.825 1.946 4.813.511.303.797 2.168.956 4.161-.031.35-.031.654-.047.861-.333-.271-.94-.638-1.242.207-.414 1.195 1.323 6.631 1.404 6.822 0 0 .19.478.461.223 0 0 0-.031.016-.048.704 4.273 1.899 7.045 3.175 8.846C190.747 226.989 189.33 227.802 189.33 227.802zM27.626 230.479c-.704-2.215-1.532-4.861-2.251-7.204-1.13 2.519-2.245 5.356-2.245 5.356.174.062.349.128.51.174h.492c.305-.033.591-.048.909-.033-.047.176-.094.352-.143.51C26.237 229.794 26.972 230.16 27.626 230.479zM19.808 277.614c.062-.016.128-.033.19-.064.178-.064.367-.128.542-.176 1.052-.35 2.104-.685 3.091-.971.065-.019.112-.034.159-.05.735-.207 1.42-.398 2.073-.574 1.578-.43 2.917-.764 3.842-.971.205-.048.383-.096.542-.128.398-.096.654-.145.732-.16.703-1.977.669-4.321.542-5.819-1.482-1.768-2.805-4.558-3.508-8.91-.24.16-.43-.223-.43-.223-.128-.447-1.93-5.595-1.532-6.79.221-.669.654-.606.99-.414-.131-.814-.274-1.739-.402-2.679-.047-.302-.078-.606-.112-.908-.031-.255-.062-.511-.093-.766-.065-.637-.112-1.227-.143-1.785-.146-2.614 1.463-4.511 3.01-5.722.205-.159.414-.302.619-.447 0-.11-.015-.207-.015-.317-3.521-1.228-7.363-2.501-9.386-2.979-3.284-.766-5.694-1.896-7.238-2.995-.016 0-.016 0-.016 0-.735.318-1.373.669-1.883 1.051-.43.335-.763.83-.987 1.42 0 .016 0 .016 0 .016-.271.383-.507.813-.7 1.29-1.927 4.607-3.505 9.869-4.86 12.275-1.354 2.406-5.943 13.407-4.586 14.728 1.37 1.323 4.159 2.901 8.35 3.888 2.042.493 5.868 1.784 9.374 3.01.146 1.673.178 3.379 0 4.431-.047.381-.128.685-.236.861M11.244 260.321c0 0 1.115-2.836 2.232-5.339.732 2.343 1.56 5.003 2.263 7.202C14.846 261.725 13.797 261.23 11.244 260.321zM35.007 167.596c0 0-.015-.016-.031-.047-.016-.033-.031-.064-.047-.112-.623-1.53-3.176-7.729-3.764-8.001-.685-.335-1.133-.111-.862.671.224.605 2.011 5.465 2.665 7.218-.047.016-.096.016-.143.033-1.242-1.993-5.184-8.223-5.597-8.558-.286-.224-1.146.174-1.052.59.097.35 3.446 6.55 4.626 8.718l-.05.016c-1.273-1.993-4.782-7.475-5.196-7.651-.464-.176-1.18.383-.847 1.02.274.511 3.176 5.819 4.259 7.78-.031.031-.065.047-.097.079-1.083-1.499-3.745-5.022-4.19-4.942-.336.048-1.102.367.016 1.785 1.115 1.435 3.365 5.117 3.365 5.117h.016c0 .048.016.079.031.128.732 2.279 2.805 4.192 3.459 5.037-.271.031-.445.064-.479.048-.078.015-.062.35.016.94.146-.335.305-.654.479-.973 1.227-2.503 2.693-4.768 4.399-6.472C35.661 169.207 35.328 168.171 35.007 167.596zM35.988 197.084h-.016c.143.495.286.973.414 1.435-1.021-.176-3.238-.414-5.594.033-.019 0-.019 0-.034 0-8.813.305-13.592 14.395-15.728 23.259.688-1.642 1.308-2.998 1.691-3.683 1.354-2.407 2.914-7.666 4.825-12.274.209-.478.448-.908.704-1.29.24-.605.557-1.1 1.002-1.435 1.339-1.037 3.699-1.787 6.04-2.344 2.344-.542 4.688-.911 5.977-1.181.209-.064.414-.095.623-.159.062-.016.128-.033.174-.048 0 0 .464-.861.813-2.327C36.576 197.068 36.274 197.068 35.988 197.084zM40.539 166.623c-.399-.112-.94.4-1.497 1.133.588-.303 1.195-.528 1.834-.688C40.875 166.846 40.779 166.687 40.539 166.623zM47.111 198.98c-.143-.048-.302-.097-.445-.143 0 0 0 .016 0 .031-.016.24-.031.495-.062.749.589.255.94.479 1.052.574C47.478 199.793 47.304 199.394 47.111 198.98z" opacity=".5"/><path fill="#ffbe55" d="M98.223,240.062c-0.352,0.079-20.992,4.483-22.745,10.253
			c-0.174,0.621-0.383,1.29-0.607,1.992c-0.526-0.191-1.052-0.398-1.578-0.59v-0.016c0,0-0.38-0.303-1.161-0.637
			c0.015-0.271,0.031-0.557,0.062-0.828c0.065-0.894,0.143-1.754,0.224-2.534c0,0,0,0,0-0.017c2.836,0.126,5.548-2.089,7.425-8.035
			c6.388-20.197-5.311-23.876-5.311-23.876s-5.962-1.337-10.488,1.311c0.031-0.033,0.062-0.081,0.097-0.112
			c0,0-15.161-2.9-15.189,17.024c-0.078,4.24-0.14,8.672-0.171,13.007c-0.112-2.296-0.305-9.707-14.682-8.365
			c-0.367,0.031-0.735,0.095-1.099,0.176c-0.128,0.031-0.271,0.064-0.399,0.095c-0.94,0.241-1.849,0.623-2.681,1.149
			c0-0.11-0.015-0.207-0.015-0.317c-3.521-1.228-7.363-2.501-9.386-2.979c-3.284-0.766-5.694-1.896-7.238-2.995
			c3.188-1.357,8.032-2.011,10.136-2.458c0.271-0.062,0.526-0.145,0.797-0.191c0,0,0.352-0.669,0.685-1.834
			c1.339,0.511,2.073,0.876,2.727,1.195c-0.704-2.215-1.532-4.861-2.251-7.204c-1.13,2.519-2.245,5.356-2.245,5.356
			c0.174,0.062,0.349,0.128,0.51,0.174l-10.027,0.051c0,0,0.43-2.965,1.416-7.047c0.688-1.642,1.308-2.998,1.691-3.683
			c1.354-2.407,2.914-7.666,4.825-12.274c0.209-0.478,0.448-0.908,0.704-1.29c0.24-0.605,0.557-1.1,1.002-1.435
			c1.339-1.037,3.699-1.787,6.04-2.344c2.344-0.542,4.688-0.911,5.977-1.181c0.209-0.064,0.414-0.095,0.623-0.159
			c0.062-0.016,0.128-0.033,0.174-0.048c0,0,0.464-0.861,0.813-2.327c-0.302,0-0.604,0-0.89,0.016h-0.016
			c-1.915-6.821-4.405-16.561-4.869-19.619c0.146-0.335,0.305-0.654,0.479-0.973c0.112,0.159,0.174,0.255,0.19,0.333
			c0-0.078-0.078-0.174-0.19-0.333c1.227-2.503,2.693-4.768,4.399-6.472c0.32,0.813,0.607,1.402,0.878,1.068
			c0.367-0.462,1.289-2.168,2.182-3.331c0.588-0.303,1.195-0.528,1.834-0.688c0.015,0.781-1.133,2.344-1.342,2.999
			c-0.19,0.621-0.937,2.565-1.893,3.681c-0.414,0.493-0.193,1.259,0.19,1.977c1.149-0.128,1.977-0.224,1.977-0.224
			s4.576,17.421,5.457,19.35c0.635,1.434,1.242,2.805,1.846,4.128c-0.143-0.048-0.302-0.097-0.445-0.143c0,0,0,0.016,0,0.031
			c-0.016,0.24-0.031,0.495-0.062,0.749c0.589,0.255,0.94,0.479,1.052,0.574c2.519,5.529,4.701,10.152,6.6,14.009
			c4.271-1.835,12.191-4.243,17.421-5.758c0-0.079,0-0.111,0-0.111s1.401-0.831,0.539-6.567c-1.273-1.801-2.469-4.575-3.172-8.831
			c0,0.016-0.016,0.031-0.016,0.031c-0.271,0.255-0.464-0.222-0.464-0.222c-0.078-0.191-1.815-5.627-1.404-6.823
			c0.193-0.542,0.526-0.59,0.816-0.478c-0.178-1.307-0.352-2.646-0.433-3.586c-0.047-0.526-0.062-0.94-0.047-1.163
			c0.174-1.785-0.417-10.123,14.741-8.659c0.704,0.064,1.404,0.207,2.073,0.447c0.971,0.319,1.896,0.797,2.708,1.435
			c1.547,1.227,3.157,3.122,2.998,5.72c-0.093,1.832-0.461,4.271-0.763,6.136c0.333-0.174,0.763-0.238,0.987,0.414
			c0.402,1.196-1.416,6.362-1.56,6.793c0,0-0.174,0.43-0.414,0.238c-0.716,4.337-2.055,7.109-3.536,8.879c0,0.016,0,0.016,0,0.016
			c-0.128,1.419-0.174,3.619,0.414,5.531l9.85-0.081c-0.906,1.1-1.575,2.503-1.479,4.209c0.112,1.848,0.461,4.287,0.766,6.152
			c-0.352-0.192-0.781-0.271-1.005,0.398c-0.38,1.195,1.404,6.36,1.547,6.79c0,0,0.174,0.398,0.414,0.24
			c0.704,4.352,2.042,7.142,3.524,8.908C98.874,235.742,98.908,238.085,98.223,240.062z" opacity=".5"/><path fill="#ffbe55" d="M98.55,288.279c-0.062,0.016-0.318,0.11-0.75,0.238 M183.219,195.367
			c0.016,0,0.031,0.016,0.047,0.016c0.495,0.064,0.959,0.271,1.307,0.605c0.112,0.048,0.209,0.112,0.305,0.16
			c0.093-1.307,0.299-3.014,0.794-4.751C184.271,192.593,183.475,194.012,183.219,195.367z"/><path fill="#ffbe55" d="M256.914,269.707c-0.016-0.096-0.031-0.191-0.065-0.286
			c-0.016-0.16-0.047-0.303-0.078-0.447c-0.177-0.861-0.286-1.42-0.286-1.42s-2.824,0.398-6.457,0.797h-0.062
			c-2.12,0.224-4.495,0.462-6.743,0.623c-4.623,0.302-8.72,0.319-8.975-0.654c-2.677-10.695-5.003-18.634-6.743-24.42h-0.016
			c-0.732-2.422-1.354-4.463-1.865-6.169c-0.43-1.482-2.104-2.869-4.349-4.113c-6.569-3.666-18.109-6.152-18.365-6.215
			c-0.685-1.977-0.654-4.32-0.526-5.801c1.485-1.77,2.824-4.559,3.555-8.911c0.224,0.176,0.414-0.223,0.414-0.223
			c0.128-0.43,1.946-5.594,1.547-6.79c-0.209-0.669-0.638-0.59-0.99-0.398c0.321-1.865,0.669-4.304,0.781-6.153
			c0.128-2.598-1.466-4.496-3.01-5.722c-1.373-1.083-4.24-4.815-5.977-4.973c-6.36-0.621-10.6,0.845-13.023,2.965
			c-0.51,1.737-0.704,3.443-0.797,4.749c-0.096-0.047-0.193-0.11-0.321-0.159c-0.333-0.334-0.797-0.542-1.307-0.605
			c-0.016,0-0.016-0.017-0.031-0.017c-0.414,1.961,0.302,3.826,1.946,4.815c0.51,0.303,0.797,2.168,0.956,4.161
			c-0.031,0.35-0.031,0.652-0.047,0.861c-0.336-0.272-0.94-0.638-1.245,0.207c-0.414,1.195,1.323,6.631,1.404,6.821
			c0,0,0.19,0.479,0.461,0.224c0,0,0-0.033,0.016-0.048c0.704,4.271,1.899,7.045,3.172,8.846c0.862,5.739-0.557,6.552-0.557,6.552
			s0,0.064,0,0.128c-5.451,1.578-13.835,4.128-17.932,5.977c-0.302,0.143-0.623,0.447-1.021,0.876
			c-0.221-0.59-0.557-1.083-1.002-1.435c-2.058-1.594-6.519-2.502-9.645-3.091c1.865-1.53,3.06-3.793,3.06-6.345
			c0-3.426-2.135-6.359-5.196-7.651c2.089-4.989,4.527-14.17-3.474-18.553c-3.285-1.801-6.233-2.104-8.751-1.499
			c0.112-1.052,0.209-1.992,0.271-2.774c0.128-1.561,0.143-2.517,0-2.517h-0.476c0.557-0.909,2.372-3.062,2.821-5.42
			c0.016-0.064,0.031-0.079,0.016-0.128h0.016c0,0,1.803-3.921,2.727-5.484c0.94-1.561,0.143-1.753-0.208-1.768
			c-0.445,0-2.646,3.794-3.571,5.403c-0.031-0.031-0.062-0.048-0.096-0.079c0.847-2.072,3.094-7.699,3.284-8.225
			c0.271-0.669-0.511-1.132-0.94-0.909c-0.399,0.224-3.235,6.089-4.24,8.225l-0.062-0.016c0.906-2.279,3.505-8.846,3.537-9.196
			c0.065-0.447-0.859-0.733-1.115-0.462c-0.367,0.381-3.54,7.061-4.527,9.148c-0.05,0-0.096,0-0.143-0.016
			c0.221-0.909,0.62-2.614,0.987-4.176c0.383-1.561,0.719-2.981,0.797-3.298c0.174-0.797-0.286-0.973-0.924-0.574
			c-0.573,0.366-2.469,7.236-2.836,8.544c0,0.016-0.016,0.031-0.016,0.031c-0.511,1.244-0.813,4.289-1.404,3.681
			c-0.685-0.685-3.203-4.383-4.209-3.985c-1.003,0.398,1.037,2.503,1.42,3.3c0.271,0.59,1.245,2.439,2.344,3.428
			c0.461,0.43,0.318,1.227,0.047,1.992c-1.18,0-2.008,0-2.008,0s-0.174,1.306-0.461,3.252c-0.735,5.244-2.17,15.143-2.615,16.624
			c-5.308,17.168-8.879,27.145-11.715,32.995c-0.448-0.143-0.894-0.286-1.339-0.431c-0.448-0.143-0.893-0.286-1.339-0.43
			c-0.607-0.191-1.214-0.383-1.818-0.574c-0.735-0.222-1.466-0.445-2.167-0.669c-0.735-0.207-1.435-0.43-2.12-0.621
			c-0.526-0.16-1.021-0.304-1.5-0.447c0-0.079,0-0.128,0-0.128s-1.401-0.828-0.526-6.55c1.292-1.802,2.487-4.575,3.203-8.83
			l0.019,0.031c0.271,0.255,0.461-0.207,0.461-0.207c0.081-0.207,1.834-5.627,1.42-6.823c-0.193-0.542-0.511-0.59-0.813-0.478
			c0.078-0.542,0.159-1.068,0.221-1.594c0.112-0.797,0.193-1.546,0.24-2.12c0.016-0.159,0.031-0.319,0.031-0.447
			c0.016-0.254,0.016-0.462,0-0.59c-0.143-1.673,0.367-9.038-11.905-8.862c-0.862,0-1.803,0.048-2.805,0.143
			c-1.722,0.16-3.396,0.797-4.782,1.882c-0.545,0.414-1.087,0.908-1.547,1.497c-0.909,1.1-1.578,2.503-1.482,4.207
			c0.112,1.849,0.461,4.288,0.766,6.153c-0.352-0.191-0.781-0.271-1.006,0.398c-0.383,1.196,1.404,6.36,1.547,6.79
			c0,0,0.174,0.398,0.414,0.24c0.701,4.35,2.039,7.14,3.521,8.91c0.112,1.482,0.143,3.826-0.542,5.801
			c-0.349,0.081-20.992,4.48-22.745,10.25c-0.174,0.621-0.383,1.29-0.607,1.992c-0.526-0.191-1.052-0.398-1.578-0.59v-0.016
			c0,0-0.38-0.303-1.161-0.638c0.016-0.271,0.031-0.542,0.062-0.812c0.065-0.909,0.143-1.77,0.224-2.534c0,0,0,0,0-0.033
			c2.836,0.128,5.548-2.087,7.428-8.033c6.391-20.195-5.308-23.877-5.308-23.877s-5.962-1.323-10.488,1.323
			c0.031-0.033,0.062-0.081,0.096-0.112c0,0-15.161-2.902-15.192,17.023c-0.078,4.24-0.143,8.672-0.174,13.007
			c-0.112-2.294-0.302-9.707-14.682-8.368c-0.364,0.033-0.732,0.096-1.099,0.176c-0.128,0.031-0.271,0.064-0.398,0.095
			c-0.94,0.24-1.849,0.623-2.677,1.147c-0.209,0.145-0.414,0.288-0.623,0.447c-1.544,1.211-3.154,3.108-3.01,5.722
			c0.031,0.559,0.078,1.149,0.143,1.785c0.031,0.255,0.062,0.511,0.093,0.766c0.034,0.302,0.065,0.605,0.112,0.908
			c0.128,0.942,0.271,1.865,0.399,2.679c-0.333-0.191-0.766-0.255-0.987,0.414c-0.399,1.195,1.401,6.343,1.529,6.79
			c0,0,0.193,0.383,0.433,0.224c0.701,4.351,2.024,7.14,3.505,8.91c0.128,1.497,0.174,3.842-0.542,5.817
			c-0.081,0.017-0.336,0.064-0.735,0.16c-0.143,0.031-0.333,0.08-0.542,0.128c-0.925,0.207-2.263,0.542-3.842,0.971
			c-0.654,0.176-1.339,0.367-2.07,0.574c-0.05,0.016-0.081,0.031-0.143,0.048c-0.99,0.286-2.042,0.621-3.11,0.971
			c-2.248,6.552-2.805,31.003-2.852,51.852c0.221-0.462,0.476-0.925,0.781-1.387c3.026-29.536,88.557-53.763,199.194-57.829
			c0.592-6.838,1.102-12.464,1.102-12.464s1.61,6.486,3.602,12.305c0.047,0.159,0.112,0.319,0.159,0.478
			c0.638,1.865,1.323,3.635,1.977,5.07c0.859,1.912,1.722,3.235,2.453,3.426c1.373,0.35,14.283-0.159,23.065-0.749
			c4.751-0.335,8.337-0.685,8.337-0.973C258.3,276.895,257.456,272.448,256.914,269.707z M48.761,252.11
			c-0.143-0.079-0.302-0.064-0.448,0c0.193-1.418,0.383-2.853,0.464-3.809C48.761,249.575,48.761,250.85,48.761,252.11z" opacity=".8"/><path fill="#ffbe55" d="M136.388,194.181c-0.732,5.244-2.164,15.142-2.612,16.624
			c-5.302,17.169-8.869,27.147-11.709,32.997c-0.445-0.142-0.894-0.285-1.339-0.428c-0.445-0.145-0.893-0.288-1.339-0.431
			c-0.607-0.191-1.211-0.383-1.818-0.574c-0.732-0.223-1.466-0.445-2.167-0.67c-0.735-0.207-1.435-0.428-2.12-0.619
			c-0.526-0.159-1.021-0.304-1.497-0.447c0-0.079,0-0.128,0-0.128s-1.404-0.828-0.529-6.55c1.292-1.801,2.487-4.576,3.203-8.832
			l0.016,0.031c0.271,0.255,0.464-0.207,0.464-0.207c0.078-0.207,1.83-5.627,1.416-6.823c-0.193-0.542-0.511-0.59-0.813-0.478
			c0.078-0.542,0.159-1.068,0.221-1.594c0.112-0.797,0.193-1.546,0.24-2.12c0.016-0.159,0.031-0.319,0.031-0.445
			c0.016-0.255,0.016-0.462,0-0.59c-0.143-1.675,0.367-9.038-11.908-8.86c0.414-1.642,1.052-3.331,2.104-4.768
			c2.008-2.757,5.339-4.08,6.183-4.383c0.081-0.047,0.143-0.064,0.209-0.079c0.84-0.159,2.708-0.862,4.318-1.468
			c0,0,0.031-0.016,0.093-0.064c0.143-0.095,0.464-0.302,0.99-0.542c-0.016-0.255-0.031-0.511-0.05-0.764
			c-0.062-0.83-0.143-1.627-0.205-2.344v-0.016c-2.646,0.128-5.149-1.96-6.871-7.475c-0.75-2.374-1.23-4.51-1.485-6.407
			c-0.286-2.136-0.317-3.969-0.159-5.579c-2.058-4.271,5.672-15.701,16.861-9.551c0.669,0.367,1.273,0.781,1.799,1.211
			c5.787,4.701,3.605,12.767,1.697,17.344c3.042,1.304,5.18,4.237,5.18,7.665c-0.016,2.55-1.195,4.83-3.06,6.36
			C133.137,193.432,134.794,193.767,136.388,194.181z" opacity=".5"/><g opacity=".3"><rect width="45.638" height="24.927" x="89.822" y="103.886" fill="#ffbe55" transform="rotate(-33.613 112.631 116.34)"/><rect width="2.298" height="25.504" x="107.404" y="136.594" fill="#ffbe55" transform="rotate(-33.561 108.54 149.34)"/></g><g opacity=".3"><path fill="#ffbe55" d="M272.041 188.741c.193 2.296.193 4.608-.224 5.292-.778 1.29-6.821 10.361-6.821 10.361.414.366.971.702 1.609 1.02-2.774 7.078-6.009 19.59-4.813 37.889.894.048 1.784.079 2.662.128 2.693.143 5.37.302 8.035.462h.016c.732-2.424 1.354-4.464 1.865-6.169.43-1.484 2.105-2.869 4.349-4.113 1.834-2.789 4.449-6.759 4.944-7.587.414-.686.43-3.014.237-5.293-3.521-1.228-7.363-2.503-9.402-2.981-4.193-.973-6.998-2.55-8.353-3.873-1.354-1.308 3.204-12.322 4.542-14.744 1.339-2.406 2.901-7.668 4.813-12.274.209-.493.448-.94.719-1.339.237-.59.557-1.068.987-1.403.638-.495 1.497-.925 2.487-1.292 1.115-7.73 5.753-34.589 16.752-35.019h.015c2.55-.493 4.941-.176 5.85-.033.414-7.283-.844-18.154-5.436-25.151-1.768-5.436-5.931-6.743-5.931-6.743s-2.948-.654-6.183-.047c-.016 0-.031 0-.031 0-11.03.381-15.719 27.287-16.833 34.986-.987.383-1.849.797-2.487 1.292-.445.35-.766.844-1.003 1.434-.255.398-.495.814-.703 1.307-1.912 4.606-3.49 9.867-4.829 12.274-1.354 2.406-5.931 13.421-4.573 14.744 1.37 1.323 4.159 2.884 8.368 3.873C264.694 186.222 268.536 187.514 272.041 188.741zM269.778 179.481c-.893-.463-1.946-.957-4.495-1.849 0 0 1.118-2.838 2.232-5.356C268.25 174.602 269.078 177.264 269.778 179.481zM312.354 187.131c.94 1.29 1.56 2.774 1.958 4.256.495 1.737.704 3.443.797 4.751.096-.048.193-.112.305-.16.349-.335.812-.542 1.307-.606.016 0 .031-.016.047-.016 6.535-2.932 15.367-4.861 15.796-4.958.685-1.977.638-4.304.51-5.801 0 0 0 0 0-.016-1.485-1.77-2.823-4.544-3.54-8.879-.24.159-.414-.24-.414-.24-.128-.43-1.946-5.594-1.547-6.79.208-.654.623-.605.974-.414-.305-1.865-.654-4.304-.766-6.138-.143-2.598 1.451-4.494 3.01-5.722.688-.542 1.74-1.753 2.839-2.836.031-.383.096-.781.159-1.213 1.292-1.801 2.487-4.575 3.188-8.846.016.015.016.048.016.048.271.255.464-.222.464-.222.078-.191 1.831-5.627 1.417-6.823-.302-.845-.925-.478-1.258-.207 0-.207-.016-.51-.031-.861.159-1.992.445-3.857.956-4.161 4.813-2.853 1.625-13.198-13.533-11.779-1.737.174-4.592 3.888-5.977 4.973-1.547 1.227-3.157 3.124-3.014 5.722.112 1.849.464 4.271.766 6.152-.336-.19-.766-.271-.987.398-.398 1.195 1.417 6.36 1.544 6.792 0 0 .178.398.414.222.719 4.352 2.058 7.142 3.54 8.91.128 1.482.159 3.826-.542 5.818-.143.031-4.337.94-9.103 2.438C315.318 171.575 314.49 185.123 312.354 187.131zM346.145 190.797c0 0 0 .048 0 .128 2.375.685 5.308 1.563 8.21 2.487-.128-1.563-.143-2.519 0-2.519h.476c-.557-.909-2.391-3.06-2.836-5.42-.016-.048-.031-.079-.016-.128h-.015c0 0-1.803-3.921-2.727-5.482-.94-1.547-.143-1.754.209-1.77.445 0 2.646 3.793 3.571 5.403.031-.031.062-.047.093-.064-.844-2.087-3.091-7.699-3.281-8.241-.271-.669.511-1.132.94-.907.398.222 3.234 6.088 4.24 8.223l.062-.016c-.909-2.279-3.505-8.846-3.537-9.196-.065-.447.859-.733 1.115-.462.367.383 3.54 7.061 4.527 9.15.047 0 .096 0 .143-.017-.224-.907-.623-2.613-.987-4.176-.383-1.561-.719-2.979-.797-3.298-.177-.797.286-.973.925-.574.573.367 2.469 7.237 2.836 8.544 0 .016.015.031.015.031.511 1.244.813 4.288 1.404 3.683.685-.687 3.204-4.383 4.206-3.985 1.005.398-1.034 2.501-1.417 3.298-.271.59-1.245 2.439-2.329 3.428-.461.43-.333 1.227-.047 1.992 1.164 0 2.008 0 2.008 0s.174 1.308.461 3.252c1.594-.414 3.253-.749 4.654-1.004-1.865-1.53-3.042-3.811-3.06-6.36 0-3.428 2.139-6.36 5.18-7.666-1.911-4.575-4.094-12.641 1.69-17.343-.271-.111-.542-.223-.812-.318 0 0-.367-.288-1.099-.606.016-.255.031-.511.062-.766.065-.828.128-1.625.193-2.343l.016-.017c2.631.112 5.149-1.96 6.886-7.475 1.578-5.005 1.943-8.91 1.656-11.955 2.073-4.24-5.641-15.732-16.864-9.596-8.001 4.383-5.579 13.581-3.505 18.57-3.06 1.29-5.196 4.225-5.196 7.651 0 2.534 1.195 4.814 3.06 6.345-1.578.286-3.474.669-5.246 1.163-.255.288-.557.526-.909.733-.507.303-.781 2.12-.956 4.097v.048c.016.366.031.654.031.876.336-.271.959-.638 1.261.207.414 1.196-1.323 6.631-1.404 6.822 0 0-.19.478-.461.223 0 0-.016-.016-.016-.031-.685 4.223-1.865 6.997-3.157 8.798 0 0 0 0 0 .016C344.725 189.969 346.145 190.797 346.145 190.797zM381.962 192.71c.526.24.844.447.987.542.065.048.097.064.097.064 1.609.605 3.474 1.308 4.318 1.466.065.016.128.033.209.079.844.303 4.175 1.627 6.183 4.383 1.052 1.435 1.69 3.124 2.104 4.766.862 0 1.803.048 2.805.143 1.722.16 3.396.797 4.782 1.882.545.414 1.086.908 1.547 1.497l9.85.079c.592-1.911.542-4.111.414-5.531 0 0 0 0 0-.016-1.482-1.77-2.82-4.542-3.536-8.879-.24.191-.414-.238-.414-.238-.143-.431-1.961-5.596-1.563-6.792.224-.652.654-.588.987-.414-.302-1.865-.669-4.304-.763-6.136-.162-2.598 1.448-4.495 2.995-5.722.812-.638 1.737-1.116 2.708-1.435.05-.702.128-1.53.274-2.486 1.289-1.802 2.484-4.592 3.188-8.847.016.017.016.033.016.048.271.255.461-.223.461-.223.081-.207 1.834-5.627 1.404-6.823-.193-.542-.511-.574-.797-.462.286-2.056.542-4.144.476-4.766-.159-1.785.448-10.121-14.71-8.687-1.74.16-3.412.797-4.801 1.882-1.544 1.211-3.154 3.109-3.01 5.722.112 1.849.461 4.271.763 6.153-.333-.209-.763-.271-.987.398-.399 1.195 1.42 6.343 1.547 6.79 0 0 .174.383.414.223.716 4.352 2.055 7.142 3.537 8.91.112 1.419.146 3.619-.461 5.548l-12.418-.128c-.252 1.898-.732 4.033-1.482 6.407-1.722 5.515-4.221 7.604-6.868 7.476v.016c-.065.718-.143 1.515-.208 2.344C381.993 192.2 381.977 192.455 381.962 192.71zM464.016 197.045l10.507.064c0 0-1.563-10.951-5.644-19.685C468.418 180.485 465.93 190.224 464.016 197.045zM428.314 208.299c0 0 0 .031 0 .111 5.227 1.514 13.15 3.921 17.421 5.755 1.896-3.857 4.082-8.48 6.597-14.011-.031.016-.047.033-.047.033-1.61.621-3.474 1.323-4.302 1.482 0 0-1.482.478-3.172 1.546-.112-.271-.209-.557-.321-.828 2.073-1.004 5.087-2.344 8.387-3.443.604-1.323 1.211-2.694 1.846-4.128.878-1.929 5.454-19.352 5.454-19.352s.828.096 1.974.224c.383-.718.607-1.484.193-1.977-.956-1.116-1.706-3.06-1.896-3.681-.209-.654-1.357-2.216-1.342-2.998-.542-.143-1.115-.223-1.687-.238-.016 0-.016 0-.031 0-3.238-.59-6.201.064-6.201.064s-3.714 1.163-5.61 5.898c-3.714 5.036-5.342 12.417-5.675 18.76-2.217-4.782-4.225-8.304-5.482-8.862-.576-.271-1.245-.543-1.977-.83-.081.94-.255 2.279-.433 3.586.289-.112.623-.064.816.478.414 1.195-1.323 6.631-1.404 6.823 0 0-.19.478-.461.222 0 0-.019-.015-.019-.031-.701 4.256-1.896 7.03-3.169 8.831C426.91 207.47 428.314 208.299 428.314 208.299z"/></g><path fill="#0b4870" d="M275.516,275.388c0.305,0.016,0.592,0.031,0.878,0.048c2.151,0.11,4.302,0.238,6.438,0.366
			c-0.747-9.117-1.594-18.267-1.594-18.267S278.289,269.363,275.516,275.388z M451.217,248.259c0.016,1.276,0.016,2.551,0.016,3.811
			c0.143-0.079,0.302-0.064,0.448,0C451.488,250.65,451.298,249.216,451.217,248.259z"/><path fill="#ffbe55" d="M266.145 213.878c1.354 1.323 4.159 2.9 8.353 3.873 2.039.478 5.881 1.753 9.402 2.981.193 2.279.177 4.606-.237 5.293-.495.828-3.11 4.797-4.944 7.587 6.569-3.666 18.109-6.153 18.365-6.217.685-1.975.654-4.319.526-5.801-1.485-1.77-2.823-4.559-3.555-8.91-.224.174-.414-.224-.414-.224-.128-.43-1.946-5.594-1.547-6.79.209-.669.638-.59.99-.398-.321-1.865-.669-4.304-.781-6.152-.143-2.6 1.451-4.495 3.01-5.724 1.373-1.083 4.225-4.813 5.962-4.973 6.36-.621 10.6.845 13.038 2.965-.398-1.482-1.018-2.965-1.958-4.256 2.136-2.008 2.964-15.557-.704-26.205h-.015c-.781-2.294-1.768-4.463-3.01-6.343-1.771-5.436-5.931-6.726-5.931-6.726s-.128-.033-.383-.081c-.909-.143-3.3-.461-5.85.033h-.015c-10.999.43-15.638 27.289-16.752 35.019-.99.367-1.849.797-2.487 1.292-.43.335-.75.813-.987 1.403-.271.398-.51.845-.719 1.339-1.911 4.606-3.474 9.867-4.813 12.274C269.349 201.556 264.791 212.571 266.145 213.878zM277.11 209.622c0 0 1.118-2.838 2.232-5.341.719 2.327 1.563 4.989 2.263 7.19C280.712 211.025 279.663 210.514 277.11 209.622zM310.664 227.792c0 0 0 .064 0 .128 5.451 1.578 13.835 4.128 17.932 5.977.302.143.623.447 1.021.876.221-.588.557-1.083 1.003-1.434 2.058-1.594 6.519-2.503 9.645-3.093-1.865-1.53-3.06-3.794-3.06-6.343 0-3.428 2.136-6.36 5.196-7.651-2.089-4.99-4.527-14.171 3.474-18.57 3.269-1.801 6.233-2.089 8.751-1.499-.112-1.051-.209-1.992-.271-2.772-2.902-.925-5.834-1.803-8.21-2.487 0-.079 0-.128 0-.128s-1.42-.828-.542-6.567c0-.016 0-.016 0-.016 1.292-1.801 2.472-4.575 3.157-8.798 0 .016.016.031.016.031.271.255.461-.223.461-.223.081-.191 1.818-5.627 1.404-6.822-.302-.845-.925-.478-1.261-.207 0-.223-.016-.51-.031-.876v-.048c.174-1.977.448-3.794.956-4.097.352-.207.654-.445.909-.733 3.381-3.554-.383-12.368-14.458-11.014-.859.081-2.008 1.052-3.122 2.137-1.099 1.083-2.151 2.294-2.839 2.836-1.56 1.228-3.154 3.124-3.01 5.722.112 1.834.461 4.273.766 6.138-.352-.191-.766-.24-.974.414-.398 1.196 1.419 6.36 1.547 6.79 0 0 .174.398.414.24.716 4.335 2.055 7.109 3.54 8.879 0 .016 0 .016 0 .016.128 1.497.174 3.825-.51 5.801-.43.096-9.262 2.025-15.796 4.958.414 1.96-.302 3.825-1.946 4.813-.511.303-.797 2.168-.956 4.161.031.35.031.654.047.861.336-.271.94-.638 1.245.207.414 1.195-1.323 6.631-1.404 6.823 0 0-.19.478-.461.223 0 0 0-.031-.016-.048-.704 4.273-1.899 7.047-3.172 8.848C309.244 226.98 310.664 227.792 310.664 227.792zM452.332 200.154c.112-.095.464-.319 1.052-.574-.031-.254-.047-.509-.062-.749 0-.016 0-.031 0-.031-.143.047-.302.095-.445.143C452.684 199.357 452.509 199.755 452.332 200.154zM459.106 167.031c.638.16 1.245.383 1.834.687-.557-.733-1.099-1.244-1.497-1.132C459.203 166.65 459.106 166.809 459.106 167.031zM464 197.045c-.286-.016-.588-.016-.89-.016.349 1.466.813 2.327.813 2.327.047.016.112.033.174.048.208.064.414.095.623.159 1.289.271 3.633.638 5.977 1.18 2.341.557 4.701 1.307 6.04 2.343.448.335.766.83 1.006 1.435.255.383.492.813.701 1.29 1.911 4.607 3.474 9.867 4.829 12.274.383.685 1.005 2.041 1.69 3.683-2.136-8.863-6.918-22.953-15.731-23.257-.016 0-.016 0-.034 0-2.357-.445-4.573-.207-5.594-.031.128-.462.271-.94.414-1.435H464zM475.285 166.155c1.118-1.418.352-1.737.016-1.785-.445-.079-3.107 3.443-4.19 4.942-.031-.033-.065-.048-.097-.079 1.083-1.961 3.985-7.269 4.256-7.78.336-.637-.383-1.195-.844-1.02-.414.176-3.922 5.658-5.196 7.651l-.05-.016c1.18-2.168 4.527-8.368 4.623-8.718.097-.416-.766-.814-1.052-.59-.414.335-4.352 6.567-5.594 8.56-.047-.017-.097-.017-.143-.033.654-1.753 2.438-6.614 2.662-7.22.271-.781-.174-1.006-.859-.671-.591.272-3.141 6.472-3.764 8.003-.016.048-.031.079-.047.112-.016.031-.031.047-.031.047-.321.574-.654 1.611-.974 2.424 1.706 1.704 3.172 3.969 4.399 6.471.177.319.336.638.479.973.081-.59.096-.925.016-.94-.031.015-.206-.017-.476-.048.651-.845 2.724-2.758 3.459-5.037.016-.048.031-.08.031-.128h.015C471.923 171.271 474.171 167.59 475.285 166.155zM482.268 276.696c-.414-.687-.43-3.014-.24-5.292 3.505-1.228 7.332-2.519 9.374-3.012 4.19-.988 6.98-2.567 8.35-3.89 1.357-1.323-3.235-12.322-4.589-14.728-1.354-2.406-2.933-7.666-4.863-12.274-.19-.478-.43-.908-.7-1.29 0 0 0 0 0-.016-.224-.59-.557-1.085-.987-1.42-.511-.381-1.149-.733-1.883-1.051 0 0 0 0-.016 0-1.544 1.099-3.951 2.231-7.235 2.997-2.024.478-5.865 1.753-9.389 2.981 0 .111-.016.207-.016.318.208.145.414.288.623.447 1.544 1.211 3.154 3.109 3.01 5.722-.031.559-.078 1.149-.143 1.785-.031.255-.062.511-.093.766-.034.302-.065.605-.112.908-.128.94-.271 1.865-.398 2.679.333-.192.766-.255.987.414.398 1.195-1.401 6.343-1.528 6.79 0 0-.193.383-.433.222-.701 4.352-2.024 7.142-3.505 8.912-.128 1.497-.159 3.84.542 5.817.081.016.336.064.735.16.159.031.333.079.542.128.925.207 2.263.542 3.842.971.654.16 1.354.367 2.07.574.05.016.096.031.159.048 1.164.35 2.391.733 3.636 1.147.062.031.128.048.19.064M484.261 262.142c.7-2.199 1.528-4.861 2.263-7.204 1.115 2.503 2.232 5.339 2.232 5.339C486.203 261.186 485.154 261.681 484.261 262.142zM475.096 229.243c-.05-.159-.097-.335-.143-.51.318-.016.604 0 .909.033h.492c.162-.048.336-.112.51-.176 0 0-1.115-2.836-2.248-5.354-.716 2.343-1.544 4.989-2.248 7.204C473.022 230.12 473.757 229.754 475.096 229.243z" opacity=".5"/><path fill="#ffbe55" d="M401.774,240.035c0.349,0.079,20.992,4.478,22.745,10.249
			c0.174,0.621,0.383,1.29,0.607,1.992c0.526-0.191,1.052-0.398,1.578-0.59v-0.016c0,0,0.38-0.303,1.161-0.638
			c-0.016-0.271-0.031-0.557-0.062-0.828c-0.065-0.894-0.143-1.754-0.224-2.534c0,0,0,0,0-0.017
			c-2.836,0.128-5.548-2.087-7.428-8.034c-6.391-20.195,5.308-23.876,5.308-23.876s5.962-1.339,10.488,1.307
			c-0.031-0.033-0.062-0.081-0.096-0.112c0,0,15.161-2.901,15.192,17.023c0.078,4.24,0.143,8.672,0.174,13.007
			c0.112-2.296,0.302-9.707,14.682-8.368c0.364,0.031,0.732,0.095,1.099,0.176c0.128,0.031,0.271,0.064,0.398,0.095
			c0.94,0.24,1.849,0.621,2.677,1.147c0-0.111,0.016-0.207,0.016-0.318c3.524-1.228,7.366-2.503,9.389-2.981
			c3.284-0.766,5.691-1.897,7.235-2.997c-3.188-1.356-8.032-2.01-10.137-2.455c-0.271-0.064-0.526-0.145-0.797-0.191
			c0,0-0.352-0.669-0.685-1.834c-1.339,0.511-2.073,0.876-2.727,1.195c0.704-2.215,1.532-4.861,2.248-7.204
			c1.133,2.518,2.248,5.354,2.248,5.354c-0.174,0.064-0.349,0.128-0.51,0.176l10.027,0.048c0,0-0.43-2.965-1.419-7.045
			c-0.685-1.642-1.308-2.998-1.69-3.683c-1.354-2.406-2.917-7.666-4.829-12.274c-0.209-0.478-0.445-0.908-0.701-1.29
			c-0.24-0.605-0.557-1.1-1.006-1.435c-1.339-1.035-3.699-1.785-6.04-2.343c-2.344-0.542-4.689-0.909-5.977-1.18
			c-0.209-0.064-0.414-0.095-0.623-0.159c-0.062-0.016-0.128-0.033-0.174-0.048c0,0-0.464-0.861-0.813-2.327
			c0.302,0,0.604,0,0.89,0.016h0.016c1.915-6.821,4.402-16.561,4.863-19.621c-0.143-0.335-0.302-0.654-0.479-0.973
			c-0.109,0.16-0.174,0.255-0.19,0.335c0-0.079,0.081-0.174,0.19-0.335c-1.227-2.501-2.693-4.766-4.399-6.471
			c-0.318,0.813-0.604,1.402-0.875,1.068c-0.367-0.462-1.292-2.168-2.185-3.331c-0.588-0.304-1.196-0.526-1.834-0.687
			c-0.016,0.782,1.133,2.344,1.342,2.998c0.19,0.621,0.94,2.565,1.896,3.681c0.414,0.493,0.19,1.259-0.193,1.977
			c-1.146-0.128-1.974-0.224-1.974-0.224s-4.576,17.423-5.454,19.352c-0.635,1.434-1.242,2.805-1.846,4.128
			c0.143-0.048,0.302-0.096,0.445-0.143c0,0,0,0.015,0,0.031c0.016,0.24,0.031,0.495,0.062,0.749
			c-0.589,0.255-0.94,0.48-1.052,0.574c-2.515,5.531-4.701,10.154-6.597,14.011c-4.271-1.834-12.194-4.24-17.421-5.755
			c0-0.079,0-0.111,0-0.111s-1.404-0.83-0.542-6.567c1.273-1.801,2.469-4.575,3.169-8.831c0,0.016,0.019,0.031,0.019,0.031
			c0.271,0.255,0.461-0.222,0.461-0.222c0.081-0.191,1.818-5.627,1.404-6.823c-0.193-0.542-0.526-0.59-0.816-0.478
			c0.177-1.308,0.352-2.646,0.433-3.586c0.047-0.526,0.062-0.94,0.047-1.163c-0.174-1.785,0.414-10.122-14.744-8.656
			c-0.701,0.064-1.401,0.207-2.073,0.447c-0.971,0.319-1.896,0.797-2.708,1.435c-1.547,1.227-3.157,3.124-2.995,5.722
			c0.093,1.832,0.461,4.271,0.763,6.136c-0.333-0.174-0.763-0.238-0.987,0.414c-0.398,1.195,1.419,6.36,1.563,6.792
			c0,0,0.174,0.43,0.414,0.238c0.716,4.337,2.055,7.109,3.536,8.879c0,0.016,0,0.016,0,0.016c0.128,1.419,0.178,3.619-0.414,5.531
			l-9.85-0.079c0.909,1.1,1.578,2.503,1.482,4.209c-0.112,1.848-0.461,4.287-0.766,6.152c0.352-0.191,0.781-0.271,1.006,0.398
			c0.383,1.195-1.404,6.36-1.547,6.79c0,0-0.174,0.398-0.414,0.24c-0.701,4.352-2.039,7.142-3.521,8.91
			C401.12,235.716,401.089,238.058,401.774,240.035z" opacity=".5"/><path fill="#ffbe55" d="M401.453,288.252c0.224,1.211,0.399,2.279,0.545,3.076c0.062-0.925,0.125-1.849,0.206-2.838
			C401.774,288.363,401.519,288.268,401.453,288.252z M314.312,191.387c0.495,1.737,0.704,3.443,0.797,4.751
			c0.096-0.048,0.193-0.112,0.305-0.16c0.349-0.335,0.812-0.542,1.307-0.606c0.016,0,0.031-0.016,0.047-0.016
			C316.513,194.001,315.716,192.583,314.312,191.387z"/><path fill="#ffbe55" d="M363.597,194.161c0.735,5.244,2.17,15.143,2.615,16.624
			c5.308,17.168,8.879,27.145,11.715,32.995c0.448-0.143,0.893-0.286,1.339-0.43c0.448-0.145,0.893-0.288,1.339-0.431
			c0.607-0.191,1.214-0.383,1.818-0.575c0.735-0.222,1.466-0.445,2.167-0.669c0.735-0.207,1.435-0.429,2.12-0.621
			c0.526-0.159,1.021-0.303,1.501-0.447c0-0.079,0-0.128,0-0.128s1.401-0.828,0.526-6.55c-1.292-1.801-2.487-4.575-3.203-8.831
			l-0.019,0.031c-0.271,0.255-0.461-0.207-0.461-0.207c-0.081-0.207-1.834-5.627-1.419-6.822c0.193-0.542,0.51-0.59,0.813-0.478
			c-0.078-0.542-0.159-1.068-0.221-1.594c-0.112-0.797-0.193-1.546-0.24-2.12c-0.016-0.159-0.031-0.319-0.031-0.445
			c-0.016-0.255-0.016-0.462,0-0.59c0.143-1.675-0.367-9.038,11.905-8.863c-0.414-1.642-1.052-3.331-2.104-4.766
			c-2.008-2.757-5.339-4.08-6.183-4.383c-0.081-0.047-0.143-0.064-0.209-0.079c-0.844-0.159-2.709-0.861-4.318-1.466
			c0,0-0.031-0.016-0.097-0.064c-0.143-0.095-0.461-0.302-0.987-0.542c0.016-0.255,0.031-0.51,0.047-0.764
			c0.065-0.83,0.143-1.627,0.208-2.344v-0.016c2.646,0.128,5.146-1.961,6.868-7.476c0.75-2.374,1.23-4.509,1.482-6.407
			c0.289-2.136,0.321-3.969,0.162-5.579c2.055-4.271-5.676-15.7-16.864-9.548c-0.669,0.367-1.276,0.781-1.803,1.211
			c-5.784,4.702-3.602,12.769-1.69,17.343c-3.041,1.306-5.18,4.239-5.18,7.666c0.019,2.55,1.196,4.83,3.06,6.36
			C366.85,193.412,365.191,193.747,363.597,194.161z" opacity=".5"/><path fill="#ffbe55" d="M479.062,277.756c0.112-0.031,0.591-0.079,1.373-0.143
			c-0.081-0.033-0.162-0.048-0.224-0.079c-0.081-0.017-0.128-0.033-0.208-0.064c-1.227-0.416-2.469-0.814-3.618-1.149
			c-0.062-0.016-0.128-0.031-0.174-0.047c-0.735-0.207-1.404-0.398-2.074-0.574c-1.578-0.43-2.917-0.764-3.842-0.973
			c-0.205-0.047-0.383-0.095-0.542-0.126c-0.398-0.096-0.654-0.145-0.732-0.16c-0.704-1.977-0.669-4.32-0.542-5.817
			c1.482-1.77,2.805-4.559,3.505-8.911c0.24,0.16,0.43-0.223,0.43-0.223c0.128-0.447,1.93-5.594,1.532-6.79
			c-0.224-0.669-0.654-0.606-0.99-0.414c0.128-0.814,0.271-1.739,0.398-2.679c0.05-0.302,0.081-0.606,0.112-0.908
			c0.031-0.255,0.065-0.511,0.097-0.766c0.062-0.638,0.112-1.227,0.143-1.785c0.143-2.614-1.466-4.511-3.014-5.722
			c-0.205-0.159-0.414-0.303-0.619-0.447c-0.831-0.526-1.737-0.908-2.681-1.147c-0.124-0.033-0.271-0.064-0.398-0.095
			c-0.364-0.081-0.732-0.145-1.099-0.176c-14.377-1.339-14.567,6.072-14.679,8.368c-0.034-4.335-0.097-8.767-0.177-13.007
			c-0.031-19.924-15.189-17.023-15.189-17.023c0.031,0.031,0.062,0.079,0.096,0.111c-1.992-1.178-4.29-1.561-6.201-1.625
			l9.389-14.139l-38.015-25.248l-13.788,20.77l11.061,7.347c-0.909-0.095-1.753-0.128-2.534-0.128
			c-12.272-0.174-11.765,7.19-11.908,8.863c-0.016,0.128-0.016,0.335,0,0.59c0,0.128,0.016,0.286,0.034,0.445
			c0.047,0.574,0.124,1.323,0.237,2.12c0.065,0.526,0.143,1.052,0.224,1.594c-0.302-0.11-0.623-0.064-0.813,0.478
			c-0.414,1.196,1.339,6.616,1.419,6.823c0,0,0.19,0.462,0.461,0.207l0.016-0.031c0.719,4.256,1.915,7.03,3.203,8.831
			c0.878,5.722-0.526,6.55-0.526,6.55s0,0.048,0,0.128c-0.476,0.145-0.971,0.288-1.497,0.447c-0.685,0.191-1.385,0.414-2.12,0.621
			c-0.701,0.224-1.435,0.447-2.167,0.671l-1.818,0.573c-0.445,0.143-0.893,0.286-1.339,0.431c-0.445,0.143-0.893,0.286-1.339,0.43
			c-2.836-5.85-6.407-15.827-11.715-32.995c-0.448-1.482-1.88-11.38-2.615-16.624c-0.302-1.944-0.461-3.252-0.461-3.252
			s-0.847,0-2.027,0c-0.271-0.764-0.414-1.561,0.065-1.993c1.068-0.988,2.039-2.837,2.31-3.428c0.383-0.797,2.422-2.9,1.42-3.298
			c-1.006-0.398-3.524,3.298-4.209,3.985c-0.589,0.606-0.894-2.439-1.401-3.683c0,0-0.016-0.016-0.016-0.031
			c-0.367-1.308-2.266-8.177-2.839-8.544c-0.638-0.398-1.099-0.223-0.924,0.574c0.081,0.319,0.414,1.737,0.797,3.3
			c0.367,1.561,0.766,3.267,0.99,4.175c-0.05,0.017-0.097,0.017-0.143,0.017c-0.99-2.089-4.162-8.767-4.53-9.15
			c-0.252-0.271-1.177,0.016-1.115,0.462c0.031,0.35,2.631,6.918,3.54,9.196l-0.065,0.017c-1.002-2.137-3.842-8.003-4.24-8.225
			c-0.43-0.224-1.211,0.238-0.94,0.908c0.193,0.543,2.441,6.153,3.284,8.24c-0.031,0.017-0.065,0.033-0.096,0.064
			c-0.925-1.609-3.123-5.403-3.571-5.403c-0.349,0.016-1.146,0.222-0.206,1.77c0.925,1.561,2.724,5.482,2.724,5.482h0.016
			c-0.016,0.048,0,0.079,0.019,0.128c0.461,2.36,2.279,4.511,2.852,5.42h-0.495c-0.143,0-0.128,0.956,0,2.518
			c0.065,0.78,0.177,1.722,0.271,2.772c-2.5-0.588-5.467-0.302-8.733,1.499c-8.004,4.399-5.563,13.581-3.477,18.57
			c-3.06,1.291-5.196,4.223-5.196,7.651c0,2.55,1.195,4.813,3.06,6.343c-3.123,0.59-7.587,1.499-9.642,3.093
			c-0.448,0.35-0.781,0.845-1.005,1.435c-0.398-0.431-0.716-0.735-1.018-0.878c-4.097-1.849-12.481-4.383-17.932-5.96
			c0-0.064,0-0.128,0-0.128s-1.42-0.814-0.56-6.552c1.276-1.801,2.472-4.575,3.172-8.846c0.015,0.016,0.015,0.048,0.015,0.048
			c0.271,0.254,0.464-0.224,0.464-0.224c0.078-0.191,1.815-5.627,1.401-6.822c-0.302-0.844-0.906-0.478-1.242-0.207
			c-0.016-0.207-0.016-0.509-0.047-0.861c0.159-1.992,0.445-3.857,0.956-4.159c1.641-0.988,2.36-2.853,1.927-4.814
			c-0.016,0-0.016,0.016-0.031,0.016c-0.51,0.064-0.956,0.272-1.307,0.607c-0.128,0.047-0.206,0.11-0.302,0.159
			c-0.097-1.308-0.302-3.012-0.813-4.751c-2.422-2.119-6.678-3.586-13.038-2.964c-1.722,0.159-4.576,3.888-5.962,4.973
			c-1.547,1.227-3.141,3.124-2.998,5.722c0.112,1.849,0.464,4.287,0.781,6.153c-0.349-0.191-0.781-0.272-0.987,0.398
			c-0.399,1.195,1.416,6.359,1.544,6.79c0,0,0.193,0.399,0.414,0.223c0.735,4.352,2.073,7.142,3.555,8.91
			c0.128,1.484,0.159,3.826-0.526,5.803c-0.255,0.064-11.796,2.55-18.361,6.215c-2.248,1.244-3.919,2.631-4.352,4.113
			c-0.51,1.706-1.13,3.747-1.865,6.169h-0.016c-1.737,5.786-4.063,13.725-6.743,24.42c-0.237,0.971-4.349,0.971-8.972,0.669
			c-2.248-0.16-4.623-0.398-6.743-0.623h-0.062c-3.636-0.398-6.457-0.797-6.457-0.797s-0.112,0.559-0.286,1.42
			c-0.031,0.143-0.065,0.302-0.081,0.462c-0.031,0.095-0.047,0.191-0.062,0.286c-0.511,2.741-1.373,7.173-1.404,7.38
			c0,0.288,3.586,0.638,8.337,0.973c8.782,0.59,21.693,1.083,23.047,0.733c0.75-0.191,1.594-1.515,2.456-3.428
			c0.669-1.466,1.37-3.283,2.024-5.18c0.05-0.128,0.097-0.271,0.128-0.398c1.961-5.817,3.571-12.274,3.571-12.274
			s0.526,5.611,1.083,12.434c107.847,3.793,192.167,26.714,200.106,55.102c0.016,0.017,0.031,0.048,0.047,0.064
			C482.346,303.992,481.596,281.215,479.062,277.756z M401.771,240.012c-0.685-1.977-0.651-4.319-0.542-5.803
			c1.485-1.768,2.824-4.558,3.524-8.926c0.24,0.159,0.414-0.24,0.414-0.24c0.143-0.414,1.93-5.594,1.547-6.79
			c-0.224-0.67-0.654-0.59-1.006-0.399c0.302-1.865,0.654-4.304,0.766-6.136c0.047-0.957-0.128-1.785-0.448-2.551l15.018,9.979
			c-1.485,1.944-2.758,4.925-2.808,9.388l-8.91,13.421C405.248,240.761,401.917,240.027,401.771,240.012z M426.701,251.632v0.016
			c-0.526,0.191-1.052,0.398-1.578,0.59c-0.221-0.702-0.43-1.371-0.604-1.992c-0.925-3.06-7.188-5.739-12.914-7.587l6.871-10.33
			c0.286,2.136,0.813,4.542,1.675,7.252c1.88,5.946,4.589,8.161,7.428,8.034c0,0.016,0,0.016,0,0.016
			c0.078,0.781,0.159,1.642,0.221,2.536c0.034,0.271,0.05,0.557,0.065,0.828C427.084,251.328,426.701,251.632,426.701,251.632z
			 M451.233,252.03c0-1.259,0-2.534-0.016-3.811c0.078,0.957,0.271,2.391,0.461,3.811
			C451.535,251.966,451.376,251.949,451.233,252.03z" opacity=".8"/><path fill="#ffbe55" d="M85.643 288.61c-.016.112-.031.24-.031.352-.143-.048-.302-.128-.445-.224C85.325 288.691 85.484 288.658 85.643 288.61zM166.315 274.313c.318-.048.638-.079.956-.111h.015c0 .031 0 .079-.015.111"/><path fill="#ffbe55" d="M97.837 288.993c.209-.064.414-.111.623-.174M277.539 270.2c-.654 1.898-1.354 3.714-2.024 5.18-.862 1.913-1.706 3.236-2.456 3.428-1.354.35-14.265-.143-23.047-.733-8.782.59-21.693 1.099-23.065.749-.732-.192-1.594-1.515-2.453-3.426-.654-1.435-1.339-3.205-1.977-5.07 6.774-.319 13.629-.526 20.563-.605 2.774-.048 5.563-.064 8.353-.064 1.831 0 3.664 0 5.482.048C263.863 269.738 270.75 269.914 277.539 270.2zM401.469 288.229c.066.016.321.111.75.223-.081.988-.143 1.913-.208 2.853C401.867 290.508 401.693 289.44 401.469 288.229z" opacity=".9"/><path fill="#ffbe55" d="M465.977,306.48c-3.013-0.623-5.834-1.532-7.412-2.837c-0.174-0.128-0.336-0.271-0.461-0.431
			c0.174,0.064,0.333,0.128,0.492,0.191C461.164,304.423,463.633,305.459,465.977,306.48z"/><path fill="#f1b99e" d="M242.634 71.067c-.012 0-.025 0-.025 0 0-.081 0-.135 0-.135L242.634 71.067zM250.24 71.201l-.146.308-.15-.308v-.269h.283c.012 0 .012 0 .012 0V71.201zM252.061 75.617l-1.834 1.817c0 0-.701-1.185-1.762-2.531l1.628-3.393L252.061 75.617zM327.014 121.412v.067c-.121.876-.336 1.737-.66 2.452-.013.04-.028.079-.056.134-.43.917-1.062 1.561-1.937 1.63-.053.013-.106.013-.162.013-2.867-.013-5.803-1.683-6.998-2.126-.23-.081-.392-.12-.486-.109-.607.123-4.495-.767-4.495-.767l.965-7.349c0 0 1.295.591 2.575.82.968.176 1.924.148 2.329-.498.915-1.507 2.867-3.055 3.512-3.513.85-.619 2.855-3.487 3.555-2.397.7 1.079-3.094 4.874-3.742 5.831-.566.834 3.082.511 4.645.834.012 0 .04.012.065.012.202.04.377.095.486.176.255.174.445.97.511 2.033 0 .054.016.107.016.174C327.173 119.609 327.148 120.525 327.014 121.412z"/><path fill="#f1b99e" d="M325.825,116.42c0,0,10.333,0.767,10.955,1.421c0.62,0.657,0.523,1.239-0.451,1.213
			c-0.971-0.033-10.021-0.442-10.021-0.442s11.989,3.062,12.615,3.476c0.367,0.244,0.237,1.384-0.286,1.418
			c-0.526,0.034-12.608-2.28-12.608-2.28s11.189,2.88,11.606,3.392c0.364,0.45-0.003,1.482-0.853,1.323
			c-0.847-0.146-11.407-2.198-11.407-2.198s7.995,2.632,8.091,3.298c0.059,0.406-0.013,1.393-2.049,0.644
			c-2.039-0.749-7.051-1.977-7.051-1.977L325.825,116.42z"/><path fill="#0b4870" d="M317.201,123.58c-0.23-0.081-0.392-0.12-0.486-0.109c-0.607,0.123-4.495-0.767-4.495-0.767
				l0.965-7.349c0,0,1.295,0.591,2.575,0.82c-0.271-1.359-0.458-2.341-0.458-2.341s-23.439,3.311-24.055,0.848
				c-4.119-16.397-7.484-26.775-9.383-33.09c-1.887-6.3-24.582-11.133-24.582-11.133c0.093,0.257,0.187,0.5,0.296,0.741
				c0,0,0.632,3.149-0.875,5.613l-6.488,41.421c0.713-0.296,0.619,1.374-0.146,1.913c0.657,0.243,1.588,0.646,1.749,1.023
				c0.321,0.794,0.227,1.48-0.109,1.978c0,0,0.579,1.588,0.187,2.652c0,0,0.566,1.44-0.28,2.637c0,0,0.414,1.536-0.299,2.156
				c0,0-1.009,0.511-1.56,0.537c0,0-1.009-0.067-1.737-0.067c-0.227,0.012-0.417,0.012-0.551,0.028
				c-0.526,0.081-1.684,0.403-3.013,0.215c-1.336-0.176-5.98-1.306-5.98-1.306l0.028-0.43c0.579-0.082,0.903-0.135,0.903-0.135
				c3.107-4.9,3.244-7.942,3.216-8.723c1.697-0.834,3.474-1.616,4.066-1.602c0.121,0,0.243,0.013,0.349,0.028
				c0.044,0,0.084,0.013,0.125,0.025c0.495-0.149,2.422-0.686,3.054-0.929c0,0-5.722-34.716-7.241-44.598
				c-0.299-1.211-0.352-2.219-0.364-2.57c-5.896,1.709-14.956,4.467-19.411,6.488c-4.791,2.181-19.492,48.555-18.389,50.401
				c2.354,3.971,14.081,3.756,23.234,2.92c-0.442,9.355-1.239,17.702-2.544,20.032c-4.443,7.928,21.565,8.816,21.565,8.816
				c16.329,0.847,24.743-2.369,24.743-2.369s-0.352-10.473-0.352-15.642c0-5.168,3.017-38.661,3.017-38.661
				s5.573,22.157,8.885,23.005c2.288,0.579,34.099-1.037,33.949-1.91C317.295,124.105,317.267,123.903,317.201,123.58z
				 M228.395,121.317c-3.892,0.028-7.163-0.201-7.5-1.035c-0.887-2.181,6.893-21.903,7.406-21.646
				C228.541,98.757,228.678,109.526,228.395,121.317z"/><path fill="#0e538c" d="M251.616 128.439c0 0 .414 1.536-.299 2.156 0 0-1.009.511-1.56.537 0 0-1.009-.067-1.737-.067-.227.012-.417.012-.551.028-.526.081-1.684.403-3.013.215-1.336-.176-5.98-1.306-5.98-1.306l.028-.43c.579-.082.903-.135.903-.135 3.107-4.9 3.244-7.942 3.216-8.723 1.697-.834 3.474-1.616 4.066-1.602.121 0 .243.013.349.028.044 0 .084.013.125.025.495-.149 2.422-.686 3.054-.929.713-.296.619 1.374-.146 1.913.657.243 1.588.646 1.749 1.023.321.794.227 1.48-.109 1.978 0 0 .579 1.588.187 2.652C251.896 125.802 252.463 127.242 251.616 128.439zM242.609 71.067c0 .146.134 1.077.364 2.57C242.675 72.426 242.622 71.418 242.609 71.067zM256.703 76.814l.875-5.613C257.578 71.201 258.21 74.35 256.703 76.814z"/><path fill="#0b4870" d="M317.201,123.58c-0.23-0.081-0.392-0.12-0.486-0.109c-0.607,0.123-4.495-0.767-4.495-0.767
				l0.965-7.349c0,0,1.295,0.591,2.575,0.82C316.23,118.587,316.93,122.193,317.201,123.58z"/><path fill="#f1b99e" d="M257.525,71.067c-0.121,0-0.405-0.014-0.834-0.028c-1.32-0.04-3.891-0.107-6.451-0.107
			c0,0,0,0-0.012,0h-0.283c-2.41,0-4.844,0.067-6.217,0.107c-0.364-0.079-0.741-0.079-1.093,0.028l-0.025-0.135
			c0,0,1.507-0.889,0.591-7.067c-0.068-0.391-0.134-0.808-0.215-1.239c-1.332-7.296,13.919-0.053,13.919-0.053
			s-0.121,0.632-0.187,1.614c-0.137,1.602-0.174,4.134,0.564,6.273C257.363,70.676,257.431,70.865,257.525,71.067z"/><path fill="#cce9ff" d="M243.727 71.039c-.595.014-.984.028-1.093.028C242.986 70.96 243.363 70.96 243.727 71.039zM250.24 71.201l-.146.308-.15-.308v-.269h.283c.012 0 .012 0 .012 0V71.201zM253.257 78.106l3.462-1.398-.015.106-6.488 41.421-.109-.674-.081-.496-.187-1.144-.243-1.494-.458-2.814-.296-1.829-.146-.917-.149-.915c-1.588-9.598-3.863-23.543-5.09-31.256l-.053-.311-.227-1.48c-.081-.458-.137-.875-.202-1.266-.177-1.144-.299-1.95-.339-2.341l-.012-.135-.012-.093c0 0 .012 0 .025 0l.903 5.668 3.393 1.371 1.535-3.204 1.628-3.393 1.967 4.108L253.257 78.106zM257.578 71.201l-.414 2.638.402-2.679C257.565 71.173 257.578 71.189 257.578 71.201z"/><path fill="#f1b99e" d="M251.831,32.926c0,0,10.688,1.728,9.063,18.849c-1.631,17.126-11.061,15.723-11.693,15.708
				c-0.632-0.023-9.47,0.307-10.155-20.598C239.045,46.884,238.743,31.426,251.831,32.926z"/><path fill="#f1b99e" d="M261.055 46.94c0 0 1.174-1.283 1.603.019.427 1.292-1.525 6.874-1.672 7.347 0 0-.215.496-.495.224C260.211 54.251 261.055 46.94 261.055 46.94zM239.303 46.719c0 0-1.149-1.3-1.603-.012-.451 1.289 1.438 7.16 1.529 7.377 0 0 .205.51.498.235C240.007 54.048 239.303 46.719 239.303 46.719z"/><path fill="#0b4870" d="M261.049,49.569l-1.525,2.091c0,0,0.044-4.592-0.205-5.31c-0.243-0.721,0.293-3.231,0.087-3.748
				c-0.206-0.515-6.015,5.551-17.664,4.365c0,0,0,0-0.763,0.291c-0.757,0.293-0.386,5.38-0.386,5.38l-1.258-1.455
				c0,0-1.423-8.684-1.283-10.137c0.184-1.93-0.47-10.941,15.924-9.391c1.874,0.174,3.683,0.864,5.177,2.034
				c1.684,1.315,3.418,3.367,3.257,6.184C262.204,43.598,261.049,49.569,261.049,49.569z"/><path fill="#a77860" d="M244.331,65.211c0,0,4.408,5.148,11.41,0c0,0-1.961,3.902-6.08,3.997
			C245.545,69.299,244.331,65.211,244.331,65.211z"/><polygon fill="#d3d3d3" points="294.609 157.626 287.246 285.173 286.857 290.894 218.205 290.894 217.813 285.228 217.813 285.212 209.105 157.626"/><polygon fill="#f2f2f2" points="196.329 305.029 309.406 305.029 288.205 285.173 217.866 285.173"/><polygon fill="#f2f2f2" points="307.385 130.028 299.982 157.626 203.732 157.626 196.329 130.028"/><polygon fill="#0e538c" points="250.215 118.235 250.162 125.707 246.688 119.111 241.654 106.942 244.331 105.81 233.522 73.827 242.609 70.932 242.634 71.067 243.537 76.735 248.696 108.866 248.842 109.783 249.138 111.612 249.595 114.426 249.838 115.921 250.025 117.065 250.106 117.561"/><polygon fill="#0e538c" points="257.839 70.932 266.917 73.821 256.114 105.815 258.798 106.937 253.758 119.111 250.286 125.707 250.23 118.235"/><path fill="#f1b99e" d="M250.069,120.148c-0.016,0.012-0.028,0.012-0.044,0.026c-0.794,0.511-2.989-0.984-2.989-0.984
			s0.044-0.013,0.125-0.027c0.495-0.149,2.422-0.686,3.054-0.929C250.928,117.939,250.834,119.609,250.069,120.148z"/><path fill="#f1b99e" d="M251.616,128.439c0,0,0.243,0.889,0.04,1.589h-13.06c-0.081-0.014-0.121-0.026-0.121-0.026
			l0.028-0.43c0.579-0.082,0.903-0.135,0.903-0.135c3.107-4.9,3.244-7.942,3.216-8.723c1.697-0.834,3.474-1.616,4.066-1.602
			c0.121,0,0.243,0.013,0.349,0.028c0.044,0,0.084,0.013,0.125,0.025c0.993,0.134,1.709,0.632,2.232,0.768
			c0.066,0.014,0.336,0.093,0.676,0.216c0.657,0.243,1.588,0.646,1.749,1.023c0.321,0.794,0.227,1.48-0.109,1.978
			c0,0,0.579,1.588,0.187,2.652C251.896,125.802,252.463,127.242,251.616,128.439z"/><polygon fill="#ffbe55" points="248.157 76.691 247.236 99.983 250.153 117.852 253.26 99.897 251.971 76.691 249.25 76.761"/><rect width="6.024" height="5.271" x="246.934" y="74.056" fill="#ffbe55"/><path fill="#f2f2f2" d="M250.094 71.509l-1.628 3.393-1.535 3.204-3.393-1.371-.903-5.668c.109 0 .498-.014 1.093-.028 1.373-.04 3.807-.107 6.217-.107v.269L250.094 71.509zM242.634 71.067l.903 5.668-.081-.041-.053-.311-.227-1.48-.542-3.607-.012-.135-.012-.093C242.609 71.067 242.622 71.067 242.634 71.067z"/><path fill="#f2f2f2" d="M250.24,70.932v0.269l-0.146,0.308l-0.15-0.308v-0.269h0.283
			C250.24,70.932,250.24,70.932,250.24,70.932z"/><path fill="#f2f2f2" d="M257.565,71.161l-0.402,2.679l-0.445,2.869l-3.462,1.398l-1.195-2.489l-1.967-4.108l0.146-0.308
			v-0.269c2.559,0,5.13,0.067,6.451,0.107c0.43,0.014,0.713,0.028,0.834,0.028C257.537,71.094,257.553,71.136,257.565,71.161z"/><path fill="#f2f2f2" d="M250.227,70.932c0.012,0,0.012,0,0.012,0v0.269l-0.146,0.308l-0.15-0.308v-0.269H250.227z"/><polygon fill="#f2f2f2" points="256.718 76.708 257.163 73.84 256.743 76.694"/><path fill="#f2f2f2" d="M257.578,71.067l-0.012,0.093c-0.012-0.025-0.028-0.067-0.04-0.093
			C257.565,71.067,257.578,71.067,257.578,71.067z"/><rect width="11.889" height="4.26" x="220.197" y="125.767" fill="#ffbe55"/><rect width="27.398" height="1.616" x="215.736" y="112.524" fill="#ffbe55" transform="rotate(-73.393 229.437 113.33)"/><path fill="#ffbe55" d="M236.498,102.462c-0.676,1.866-2.73,2.828-4.595,2.154l0,0c-1.865-0.674-2.827-2.735-2.151-4.597
				l0.915-2.531c0.675-1.865,2.733-2.828,4.598-2.156l0,0c1.861,0.675,2.827,2.735,2.151,4.598L236.498,102.462z"/><g><rect width="11.889" height="4.26" x="275.506" y="125.767" fill="#ffbe55"/><rect width="1.616" height="27.398" x="277.348" y="99.633" fill="#ffbe55" transform="rotate(-16.637 278.206 113.346)"/><path fill="#ffbe55" d="M271.092,102.462c0.676,1.866,2.733,2.828,4.595,2.154l0,0c1.865-0.674,2.83-2.735,2.154-4.597
				l-0.915-2.531c-0.676-1.865-2.733-2.828-4.598-2.156l0,0c-1.865,0.675-2.827,2.735-2.151,4.598L271.092,102.462z"/></g><rect width="94.955" height="25.091" x="204.579" y="182.925" fill="#f2f2f2"/><path fill="#ffbe55" d="M17.838 320.808c-.271-.079-.398-.128-.398-.128s.174-5.308.286-10.009c0 1.387.016 2.708.031 3.968v.176c-.078 2.406-.143 4.176-.143 4.176s.065.031.193.064C17.807 319.677 17.822 320.251 17.838 320.808zM17.9 325.288c.019 1.211.034 1.865.034 1.865l-.112-.304C17.853 326.34 17.869 325.83 17.9 325.288zM482.411 316.504c.078 2.408.143 4.176.143 4.176s-.065.033-.193.064C482.377 319.454 482.393 318.036 482.411 316.504zM482.505 299.116c.031-.096.081-.176.112-.271-.047.573-.081 1.132-.112 1.658V299.116zM482.617 298.845"/></svg>